<?xml version="1.0" standalone="no"?>
<!DOCTYPE svg PUBLIC "-//W3C//DTD SVG 1.1//EN" "http://www.w3.org/Graphics/SVG/1.1/DTD/svg11.dtd" >
<svg>
<metadata>
Created by FontForge 20110222 at Mon Mar  7 03:45:17 2011
 By www-data
Copyright (c) 2006 by Nate Piekos, Blambot.com. All rights reserved.
</metadata>
<defs>
<font id="AnimeAce2.0BB-Italic" horiz-adv-x="756" >
  <font-face 
    font-family="Anime Ace 2.0 BB"
    font-weight="400"
    font-style="italic"
    font-stretch="normal"
    units-per-em="1000"
    panose-1="2 0 5 3 0 0 0 9 0 4"
    ascent="800"
    descent="-200"
    x-height="805"
    cap-height="836"
    bbox="-105 -144 1027 1040"
    underline-thickness="0"
    underline-position="0"
    slope="-12"
    unicode-range="U+0020-2122"
  />
    <missing-glyph />
    <glyph glyph-name="space" unicode=" " horiz-adv-x="404" 
 />
    <glyph glyph-name="exclam" unicode="!" horiz-adv-x="387" 
d="M508 879q-2 -6 -100 -140q-63 -85 -126 -171q-71 -101 -101 -178q-11 -28 -21 -54q-14 -25 -50 -25q-44 0 -44 22q0 13 18 45l24 46q54 118 107 235q76 163 122 220q25 30 88 30q22 0 49 -6q38 -8 34 -24zM111 197q-4 -13 -30.5 -68t-35.5 -67q-17 -23 -59 -23
q-43 0 -36 28q23 81 40 122q11 25 72 25q53 0 49 -17z" />
    <glyph glyph-name="quotedbl" unicode="&#x22;" horiz-adv-x="459" 
d="M487 875q-26 -99 -39 -140q-24 -80 -50 -139q-19 -47 -63 -47q-33 0 -33 36q0 18 8 48q6 21 13 42q8 31 21 91.5t21 90.5q7 26 33.5 41t51.5 15q38 0 38 -28q0 -4 -1 -10zM296 856q-25 -94 -39 -139q-25 -79 -51 -140q-19 -44 -66 -44q-33 0 -33 30q0 17 9 43q7 21 15 42
q8 33 20.5 96t21.5 95q7 25 33 40.5t53 15.5q38 0 38 -29q0 -5 -1 -10z" />
    <glyph glyph-name="numbersign" unicode="#" horiz-adv-x="757" 
d="M708 507q-12 -4 -102 -17q-10 -33 -24 -87l-9 -30q54 14 60 14q18 0 31 -23q10 -19 10 -44q0 -33 -28 -43q-14 -6 -97 -16q-7 -61 -30 -183q-5 -20 -40 -35q-28 -12 -51 -12q-31 0 -32 22q0 26 17 93q14 49 26 98q-81 -13 -204 -25q-14 -58 -24 -116q-2 -16 -8 -47
q-6 -24 -36 -39q-25 -13 -50 -13q-37 0 -37 28q0 6 2 13q16 59 49 162q-38 -4 -46 -4q-23 0 -38.5 18t-15.5 43q0 42 37 48l95 2q19 61 39 124q-31 -5 -47 -5q-27 0 -44.5 16.5t-17.5 42.5q0 10 3 21q7 25 34 29q1 0 107 3q22 71 70 214q21 57 97 57q30 0 30 -16q0 -3 -1 -7
q-13 -46 -46 -122q-39 -90 -50 -121q102 6 180 23l36 140q15 56 42.5 78t84.5 22q29 0 29 -18q0 -4 -1 -9q-9 -33 -32 -91q-27 -64 -34 -91q44 13 50 13q20 0 31.5 -20.5t11.5 -44.5q0 -35 -27 -45zM492 473q-64 -9 -190 -24q-21 -57 -40 -131q110 7 200 27q10 43 30 128z
" />
    <glyph glyph-name="dollar" unicode="$" horiz-adv-x="810" 
d="M741 396q-5 -19 -16 -40q-115 -208 -353 -310q-1 -19 -7 -57q-7 -24 -39 -42.5t-56 -18.5q-31 0 -31 26q0 10 12 50q-73 -17 -112 -17q-82 0 -122 75q-16 30 -16 47q0 7 2 15q5 18 25 45q23 31 38 31q2 0 25 -25q26 -29 57 -46q47 -25 110 -25h15q29 127 66 277
q-70 4 -209 14q-57 5 -55 48q2 37 14 58q48 84 156 169q101 80 198 118q3 15 11 43q13 47 45 76.5t79 29.5q31 0 31 -24q0 -9 -29 -88q58 8 86 8q27 0 36 -6q15 -10 7 -37q-5 -19 -6.5 -55.5t-7 -56t-38.5 -41t-53 -21.5q-17 0 -21 32q0 2 -1 46q-12 1 -22 1q-12 0 -24 -1
q-31 -94 -57 -185q65 -5 129 -10q77 -8 122 -26q19 -7 19 -34q0 -16 -8 -43zM410 664q-43 -18 -101 -60q-71 -48 -79 -78q-3 -12 68 -12q13 0 37.5 1t35.5 1q13 49 39 148zM580 314q0 30 -56 43q-42 6 -83 12q-27 -102 -54 -241q56 20 120 74q73 63 73 112z" />
    <glyph glyph-name="percent" unicode="%" horiz-adv-x="870" 
d="M883 760q-29 -26 -84 -76q-69 -63 -171 -163q15 1 27 1q63 0 107.5 -52.5t44.5 -117.5q0 -121 -160 -212q-139 -81 -268 -81q-105 0 -127 60q-31 -41 -64 -82q-42 -49 -83 -49q-19 0 -37 8q-20 10 -20 27q0 3 1 7q3 14 308 346q-86 -28 -160 -28q-130 0 -130 86
q0 96 173 260q122 117 232 117q63 0 104 -47q37 -41 47 -105q44 48 135 139q35 32 73 32q21 0 43 -11.5t22 -30.5q0 -14 -13 -28zM506 559q6 23 6 45q0 94 -80 94q-61 0 -142 -58q-86 -63 -86 -121q0 -38 44 -58q35 -18 80 -18q60 0 108 28q54 31 70 88zM687 265q5 22 5 45
q0 43 -19 70q-23 31 -64 31q-56 0 -140 -58q-89 -63 -89 -117q0 -36 42 -59q35 -20 76 -20q57 0 110 26q65 30 79 82z" />
    <glyph glyph-name="ampersand" unicode="&#x26;" horiz-adv-x="763" 
d="M722 694q-4 -14 -16 -29q-13 -18 -26 -18q-5 0 -51 37t-90 37q-55 0 -110.5 -44.5t-70.5 -99.5q-4 -17 -4 -31q0 -29 26 -38q8 -2 56 -7q36 -3 50 -18q18 -17 18 -43q0 -7 -2 -16q-11 -38 -65 -48q-56 -6 -114 -13q-76 -12 -123 -57q-57 -56 -57 -115q0 -53 50 -86
q45 -28 106 -28q93 0 238 69l7 25q15 51 21 122q2 42 16 126q5 18 39 33q29 12 51 12q27 0 31 -20q6 -30 -64 -290q-15 -60 -49 -179q-10 -29 -38.5 -46.5t-58.5 -17.5q-29 0 -29 20q0 10 38 105q-123 -51 -230 -51q-103 0 -181 40q-94 49 -94 134q0 22 7 45q22 84 111 152
q61 47 170 97q-50 35 -50 95q0 20 6 44q23 85 152 191q80 68 167 68q92 0 139 -74q26 -40 26 -65q0 -9 -2 -18z" />
    <glyph glyph-name="quotesingle" unicode="'" horiz-adv-x="320" 
d="M388 870q-4 -14 -92 -129q-85 -110 -108.5 -134.5t-44.5 -24.5q-45 0 -45 32q0 18 28 55q23 32 73 110q46 72 75 109q24 29 60 29q20 0 37.5 -10.5t17.5 -27.5q0 -5 -1 -9z" />
    <glyph glyph-name="parenleft" unicode="(" horiz-adv-x="565" 
d="M618 795q-20 -18 -58 -38q-52 -28 -62 -33q-320 -200 -370 -388q-7 -25 -7 -50q0 -72 61 -129q49 -47 128 -73q34 -8 86 -29q22 -15 13 -47q-6 -23 -23 -46q-22 -27 -42 -28q-30 20 -86 47q-64 33 -87 46q-69 41 -110 104q-45 69 -45 148q0 36 9 74q37 136 204 285
q81 71 170 138q131 97 176 97q21 0 41 -14t20 -34q0 -16 -18 -30z" />
    <glyph glyph-name="parenright" unicode=")" horiz-adv-x="599" 
d="M558 454q-37 -136 -204 -284q-83 -72 -171 -138q-131 -96 -176 -96q-21 0 -40.5 14t-19.5 33q0 17 17 30q20 17 58 38q52 27 62 33q319 198 369 388q7 25 7 49q0 73 -60 129q-49 47 -128 74q-34 7 -86 29q-21 15 -12 48q6 22 23 46q22 27 42 28q29 -20 86 -48
q62 -29 87 -46q155 -100 155 -253q0 -37 -9 -74z" />
    <glyph glyph-name="asterisk" unicode="*" horiz-adv-x="470" 
d="M516 814q-2 -9 -122 -89q19 -15 39 -30q23 -20 23 -42q0 -5 -2 -10q-4 -14 -16 -30q-14 -17 -27 -17q-5 0 -72 71l-25 -90q-4 -19 -24.5 -32t-41.5 -13q-24 0 -19 20q3 11 31 86q-22 -15 -42 -29q-28 -16 -45 -16t-30 13t-9 29q3 11 65 45q39 20 79 41q-55 27 -58 29
q-43 22 -52 32q-5 6 -1 19q4 15 18.5 36t28.5 21q8 0 87 -59q0 30 8 87q3 13 27 23q20 9 36 9q21 0 21 -14q0 -22 -9 -61q-9 -31 -17 -63q93 81 106 81q16 0 32 -15.5t11 -31.5z" />
    <glyph glyph-name="plus" unicode="+" horiz-adv-x="675" 
d="M594 381q-37 -14 -112 -21q-58 -6 -117 -10q-2 -22 1 -58q4 -45 4 -60q0 -26 -6 -47.5t-41 -38.5q-31 -15 -54 -15q-25 0 -27 17q-1 9 -1 21q0 23 26 171q-153 -14 -162 -14q-21 0 -33 16.5t-12 40.5q0 11 2 21q7 27 30 32h42h84q36 0 63 1q9 61 33 184q7 27 40 47
q28 18 56 18q32 0 26 -24l-28 -100q-17 -64 -27 -116q28 4 104 27q67 20 103 20q34 0 34 -60q0 -42 -28 -52z" />
    <glyph glyph-name="comma" unicode="," horiz-adv-x="378" 
d="M229 144q-3 -13 -92 -128q-84 -108 -108 -134t-46 -26q-17 0 -31 9t-14 24q0 17 28 53q22 32 73 111q46 70 75 108q25 29 60 29q20 0 38 -10.5t18 -28.5q0 -4 -1 -7z" />
    <glyph glyph-name="hyphen" unicode="-" horiz-adv-x="634" 
d="M601 402q-5 -18 -24 -27q-29 -14 -239 -44q-204 -29 -252 -29q-23 0 -36 16.5t-13 39.5q0 11 3 22q10 34 67 34q8 0 20 -1h17q114 0 208 16q22 4 115 31q86 25 100 25q37 0 37 -60q0 -13 -3 -23z" />
    <glyph glyph-name="hyphen" unicode="&#x2010;" horiz-adv-x="634" 
d="M601 402q-5 -18 -24 -27q-29 -14 -239 -44q-204 -29 -252 -29q-23 0 -36 16.5t-13 39.5q0 11 3 22q10 34 67 34q8 0 20 -1h17q114 0 208 16q22 4 115 31q86 25 100 25q37 0 37 -60q0 -13 -3 -23z" />
    <glyph glyph-name="period" unicode="." horiz-adv-x="305" 
d="M162 175q-3 -14 -30.5 -70t-36.5 -69q-17 -24 -58 -24q-37 0 -37 23q0 13 18 67q15 45 25 67q12 26 72 26q53 0 47 -20z" />
    <glyph glyph-name="slash" unicode="/" horiz-adv-x="678" 
d="M775 788q-4 -14 -71 -75q-346 -316 -562 -573l-68 -88q-47 -54 -89 -54q-19 0 -36 8q-19 11 -19 27q0 4 1 8q4 16 49 64q32 34 63 66q274 303 481 519q38 41 115 118q34 29 77 29q22 0 41 -10t19 -29q0 -5 -1 -10z" />
    <glyph glyph-name="zero" unicode="0" horiz-adv-x="975" 
d="M947 456q-51 -189 -237 -329q-184 -136 -374 -136q-138 0 -222.5 79t-84.5 206q0 50 15 104q51 189 237 328q183 137 373 137q138 0 223 -79.5t85 -206.5q0 -50 -15 -103zM792 411q13 45 13 90q0 103 -61 170q-63 71 -169 71q-127 0 -243 -103q-111 -99 -145 -228
q-12 -45 -12 -89q0 -103 60 -170q64 -70 169 -70q127 0 242 103q112 97 146 226z" />
    <glyph glyph-name="one" unicode="1" horiz-adv-x="351" 
d="M367 761q-13 -39 -41 -116q-21 -65 -46 -159q-49 -179 -65 -323q0 -30 -9 -93q-6 -22 -44 -36q-30 -12 -56 -12q-21 0 -22 20q-3 38 21 136q19 70 38 141q42 173 80 320q-75 -32 -84 -32q-15 0 -24.5 18t-9.5 37q0 34 50 58q39 18 97 40q70 25 94 25q22 0 22 -16
q0 -3 -1 -8z" />
    <glyph glyph-name="two" unicode="2" horiz-adv-x="712" 
d="M649 485q-3 -71 -51 -116q-28 -25 -134 -100q-115 -82 -211 -140q201 11 304 11q21 0 14 -24q-5 -17 -21.5 -40t-29.5 -33q-65 -44 -503 -44q-55 0 -55 38q0 26 13 50q19 61 78 76q188 49 314 142q113 84 155 137q29 37 27 111q-2 78 -55 120q-45 37 -113 37
q-110 0 -181 -85q-21 -27 -28 -33q-16 -14 -35 -14q-18 0 -6 45q15 56 58 117.5t87 90.5q31 21 78 21q125 0 212 -102q91 -105 83 -265z" />
    <glyph glyph-name="three" unicode="3" horiz-adv-x="739" 
d="M650 289q-35 -132 -216 -227q-160 -83 -301 -83q-37 0 -85 9q-57 11 -76 27q-23 17 -12 57q13 47 43 47q9 0 31 -11q70 -32 153 -32q92 0 187 51q109 59 132 145q5 17 5 32q0 39 -28.5 59t-74.5 20q-22 0 -69 -8t-69 -8q-34 0 -34 24q0 39 53 81q26 21 73 34q52 15 69 24
q32 22 46 72q2 13 2 27q0 37 -26 61t-66 24t-89 -29q-21 -12 -76 -54q-38 -29 -52 -29q-16 0 -16 19q0 45 73 114q51 50 112 81q68 36 125 36q61 0 105.5 -54t44.5 -121q0 -104 -127 -191q169 -53 169 -154q0 -20 -6 -43z" />
    <glyph glyph-name="four" unicode="4" 
d="M729 351q-6 -28 -76 -39q-1 0 -92 -7q-7 -34 -14 -116q-6 -73 -18 -115q-5 -20 -39 -35q-29 -12 -52 -12q-28 0 -30 20q-4 26 19 118q16 64 33 127q-112 -17 -199 -38q-8 -2 -107 -32q-81 -25 -94 -25q-40 0 -40 46q0 23 13 43q58 242 92 369q28 110 106 110q31 0 31 -23
q0 -4 -1 -8q-24 -68 -68 -205q-28 -94 -49 -190q180 51 343 65q48 202 76 309q10 35 36.5 57t61.5 22q37 0 30 -27q-13 -36 -38 -109q-42 -124 -69 -246q11 0 33 1t32 1q27 0 55 -17q32 -21 25 -44z" />
    <glyph glyph-name="five" unicode="5" horiz-adv-x="652" 
d="M627 737q-163 -20 -171 -21q-98 -15 -174 -40l-9 -172q213 -10 266 -112q23 -45 23 -93q0 -27 -6 -52q-20 -74 -92 -139q-63 -56 -147 -89q-66 -27 -148 -27q-76 0 -132 17q-82 23 -82 76q0 10 3 20q9 32 29 32q7 0 34 -11q78 -32 155 -32q82 0 156 39q88 46 108 123
q5 17 5 33q0 50 -38 81t-93 31q-21 0 -64.5 -8.5t-64.5 -8.5q-49 0 -48 76l3 219q0 10 3 32q9 35 49 53q77 33 193 54q106 20 191 20q36 0 56.5 -3t43.5 -18q25 -17 25 -38q0 -33 -74 -42z" />
    <glyph glyph-name="six" unicode="6" horiz-adv-x="830" 
d="M758 335q-23 -84 -141 -176q-98 -77 -201 -116q-90 -34 -165 -34q-109 0 -169 77q-55 69 -55 179q0 130 77 255q72 115 186 195q142 99 337 99q32 0 42 -5q15 -9 18 -38q6 -80 17 -133q5 -21 -28 -45t-56 -24t-35 42l-12 64q-186 -29 -300 -131.5t-141 -206.5
q323 105 492 105q139 0 139 -78q0 -13 -5 -29zM641 293q9 36 -75 36q-103 0 -433 -107q31 -87 152 -87q50 0 111 15.5t135 51.5q99 49 110 91z" />
    <glyph glyph-name="seven" unicode="7" horiz-adv-x="661" 
d="M739 699q-1 -6 -13 -20q-242 -279 -385 -532q-16 -33 -53 -95q-18 -25 -57 -25q-21 0 -39 8q-23 11 -18 29q11 40 422 608q-55 2 -104 2q-173 0 -284 -23q-72 -14 -84 -14q-37 0 -37 42q0 57 62 80q87 31 316 31q167 0 222 -21q27 -11 43 -40q12 -20 9 -30z" />
    <glyph glyph-name="eight" unicode="8" horiz-adv-x="811" 
d="M712 248q-37 -138 -239 -225q-167 -72 -323 -72q-188 0 -188 104q0 17 6 38q19 73 104 167q69 74 156 138q-40 7 -63.5 31t-23.5 60q0 91 171 252q123 115 238 115q61 0 106 -54q42 -53 42 -119q0 -105 -126 -191q59 -20 101 -76q45 -60 45 -125q0 -22 -6 -43zM578 603
q6 22 6 43q0 42 -21 70t-61 28q-62 0 -142 -59q-84 -63 -84 -123q0 -36 41 -55q33 -16 77 -16q59 0 109 26q59 31 75 86zM558 206q5 23 5 47q0 55 -31.5 92t-87.5 37q-81 0 -201 -71q-132 -79 -132 -154q0 -48 72 -73q53 -20 116 -20q83 0 151 30q87 38 108 112z" />
    <glyph glyph-name="nine" unicode="9" horiz-adv-x="822" 
d="M785 517q-56 -133 -84 -240q-11 -39 -24 -116.5t-23 -116.5q-7 -23 -43 -39q-30 -14 -56 -14q-27 0 -27 24q0 5 13.5 54.5t33 146.5t31.5 146q-181 -94 -370 -94q-181 0 -181 112q0 20 7 43q26 99 214 260q72 61 154 98q89 40 165 40q79 0 131 -47q84 -76 84 -164
q0 -37 -25 -93zM649 524q7 24 7 47q0 56 -31 91q-33 39 -88 39q-82 0 -202 -71q-132 -78 -132 -154q0 -48 72 -74q54 -19 117 -19q83 0 150 29q88 38 107 112z" />
    <glyph glyph-name="colon" unicode=":" horiz-adv-x="321" 
d="M259 488q-3 -14 -31 -71.5t-37 -69.5q-17 -24 -58 -24q-44 0 -36 30q22 83 42 127q11 27 72 27q54 0 48 -19zM147 175q-2 -14 -29.5 -70t-37.5 -69q-17 -24 -58 -24q-37 0 -37 23q0 14 18 67q16 45 25 67q12 26 73 26q52 0 46 -20z" />
    <glyph glyph-name="semicolon" unicode=";" horiz-adv-x="349" 
d="M271 488q-3 -14 -30.5 -71.5t-37.5 -69.5q-16 -24 -57 -24q-44 0 -37 30q22 81 42 127q12 27 72 27q53 0 48 -19zM207 144q-4 -14 -93 -128q-84 -109 -108 -134.5t-45 -25.5q-45 0 -45 33q0 16 28 53q25 34 74 110q45 72 75 109q23 29 59 29q20 0 38 -10t18 -28
q0 -5 -1 -8z" />
    <glyph glyph-name="less" unicode="&#x3c;" horiz-adv-x="738" 
d="M804 820q-4 -17 -73 -53q-311 -164 -563 -375q95 -76 332 -275q22 -18 65 -57q16 -18 16 -35q0 -5 -2 -13q-6 -20 -25 -44q-22 -29 -39 -29q-13 0 -48 40q-195 214 -368 314q-27 13 -53 26q-33 20 -33 42q0 5 1 10q6 22 27 50q24 32 43 31q103 73 514 345q35 24 107 70
q24 14 40 14q20 0 42.5 -20.5t16.5 -40.5z" />
    <glyph glyph-name="equal" unicode="=" horiz-adv-x="738" 
d="M645 536q-5 -17 -25 -27q-27 -14 -239 -45q-205 -30 -251 -30q-24 0 -36.5 16.5t-12.5 39.5q0 11 3 22q6 22 29 30q14 4 89 6q93 2 99 2q84 6 212 43q91 26 98 26q35 0 35 -60q0 -13 -1 -23zM642 326q-5 -17 -24 -26q-33 -15 -241 -45q-202 -30 -251 -30
q-22 0 -35.5 17.5t-13.5 40.5q0 10 2 19q8 29 51 34q33 1 65 1q124 5 197 17q20 3 116 31q90 25 99 25q18 0 29 -21q8 -19 8 -43q0 -11 -2 -20z" />
    <glyph glyph-name="greater" unicode="&#x3e;" horiz-adv-x="751" 
d="M703 372q-7 -27 -54 -50q-36 -14 -73 -29q-222 -101 -464 -264q-37 -25 -73 -51q-59 -40 -70 -40q-26 0 -26 54q0 37 40 68q7 4 98 57q159 93 479 275q-128 189 -322 344q-29 19 -80 64q-7 9 -4 20q6 24 35.5 41t52.5 17q19 0 35.5 -11t36.5 -33q17 -19 35 -37
q130 -133 166 -170q91 -97 160 -175q30 2 30 -58q0 -13 -2 -22z" />
    <glyph glyph-name="question" unicode="?" horiz-adv-x="776" 
d="M798 666q-18 -67 -89 -123q-160 -124 -488 -146q-21 -44 -29 -53q-18 -21 -54 -21q-48 0 -41 24q35 133 55 145q7 4 108 4q208 0 295 62q67 47 80 95q4 14 4 27q0 58 -73 94q-60 32 -129 32q-55 0 -126 -31q-42 -17 -109 -54q-53 -31 -61 -31q-17 0 -8 33q12 44 46 70
q70 53 175 87q101 32 183 32q102 0 180 -50q88 -56 88 -146q0 -25 -7 -50zM140 181q-2 -9 -26.5 -54.5t-32.5 -54.5q-15 -19 -57 -19q-38 0 -38 20q0 28 33 97q12 26 75 26q50 0 46 -15z" />
    <glyph glyph-name="at" unicode="@" horiz-adv-x="973" 
d="M931 481q-51 -191 -245 -354q-200 -166 -389 -166q-125 0 -202 76q-74 73 -74 192q0 47 12 97q52 191 245 355q200 168 388 168q125 0 201.5 -76.5t76.5 -194.5q0 -47 -13 -97zM785 420q13 49 13 98q0 94 -46 156q-51 67 -145 67q-77 0 -171 -48q-212 -107 -269 -316
q-13 -49 -13 -99q0 -95 46 -156q51 -67 143 -67q77 0 172 48q214 108 270 317zM689 558q0 -25 -24 -155q-4 -18 -13 -55q-26 -99 -111 -155q-79 -51 -180 -51q-50 0 -84 18q-39 22 -39 63q0 70 108 180q88 89 194 89q32 0 68 -8q1 8 1 16q0 48 -52 48q-25 0 -74 -11t-73 -11
q-49 0 -49 40q0 7 2 15q8 27 98 43q65 12 121 12q72 0 89.5 -16.5t17.5 -61.5zM562 345q0 24 -14.5 43.5t-35.5 19.5q-38 0 -110 -44q-75 -47 -75 -83q0 -23 29 -38q25 -12 52 -12q52 0 100 31q54 34 54 83z" />
    <glyph glyph-name="A" unicode="A" 
d="M678 97q-7 -25 -39 -47t-57 -22q-26 0 -38 53q-6 38 -11 76q-192 -44 -477 -94q-55 -80 -81 -80q-24 0 -39 23.5t-15 52.5q0 9 3 17q4 16 40 56q25 28 51 55q99 118 213 291q96 149 192 299q33 51 89 51q26 0 34 -26q6 -23 9 -63q3 -61 4 -65q28 -271 91 -466l20 -56
q15 -43 11 -55zM514 280q-19 125 -60 374q-66 -93 -307 -461q197 31 367 87z" />
    <glyph glyph-name="B" unicode="B" horiz-adv-x="787" 
d="M731 584q-31 -116 -207 -207q57 -18 98 -55q50 -46 50 -98q0 -16 -4 -31q-26 -98 -214 -156q-114 -35 -330 -35q-51 0 -66 2q-41 6 -49 28q-9 24 96 445q-4 -1 -8 -1q-28 0 -28 42q0 13 3 26q14 51 109 130q80 66 147 100q94 48 196 48q98 0 156 -42q61 -45 61 -128
q0 -32 -10 -68zM638 598q0 49 -56 79q-46 23 -105 23q-105 0 -242 -109q-29 -98 -56 -209q274 7 375 87q84 67 84 129zM573 202q0 43 -94 71q-73 22 -134 22q-102 0 -198 -60q-10 -60 -16 -113q104 -8 181 -8q151 0 206 29t55 59z" />
    <glyph glyph-name="C" unicode="C" horiz-adv-x="768" 
d="M767 744q-4 -16 -2 -47.5t-2 -48.5q-7 -24 -43.5 -47t-62.5 -23q-21 0 -21 48q0 12 1.5 32.5t1.5 25.5q-231 -35 -380 -165q-65 -56 -110 -119q-58 -82 -58 -145q0 -58 47 -91q43 -32 109 -32q69 0 178 40q67 24 172 74q84 40 92 40q14 0 14 -19q0 -11 -5 -30t-40 -43
q-26 -15 -54 -31q-266 -157 -434 -157q-92 0 -140 52q-44 46 -44 129q0 45 14 95q62 229 282 388q213 153 445 153q51 0 51 -25q0 3 -11 -54z" />
    <glyph glyph-name="D" unicode="D" horiz-adv-x="816" 
d="M813 485q-48 -179 -258 -306q-169 -103 -382 -143q-36 -6 -110 -19l-59 -14q-15 0 -20 18t111 484q-12 21 -4 52q8 28 35 55q13 13 54 44q210 161 395 161q112 0 181 -69t69 -176q0 -43 -12 -87zM677 453q8 31 8 61q0 79 -55 130t-140 51q-127 0 -274 -111
q-77 -236 -101 -452q184 16 326 81q195 88 236 240z" />
    <glyph glyph-name="E" unicode="E" horiz-adv-x="734" 
d="M732 482q-6 -25 -73 -33q-326 -36 -507 -92q-29 -121 -42 -234q90 0 213 23l216 44q19 4 30 4q33 0 33 -22q0 -24 -27 -53q-22 -25 -46 -37q-92 -46 -238 -71q-123 -21 -237 -21q-59 0 -69 31q-6 21 64 314q-26 10 -26 42q0 24 15.5 45.5t38.5 30.5h1q21 97 50 205
q4 22 18 60q10 20 30 32q12 8 54 20q67 19 134 39q75 19 133 19h40q52 1 71 -4q34 -8 51.5 -36.5t10.5 -52.5q-9 -32 -68 -37q-147 -12 -187 -19q-80 -14 -190 -56q-23 -66 -42 -140q244 67 426 67q36 0 55 -3q24 -3 47 -22q27 -21 21 -43z" />
    <glyph glyph-name="F" unicode="F" horiz-adv-x="677" 
d="M671 466q-15 -15 -61 -20q-289 -32 -466 -89q-14 -61 -26 -151q-4 -50 -20 -149q-7 -25 -39 -40q-27 -13 -54 -13t-31 18q-3 22 67 310q-25 8 -25 42q0 25 15 48.5t39 28.5q16 68 49 201q12 46 14 52q12 28 35 43q12 8 55 20q133 38 153 43q71 15 153 15q53 0 72 -4
q33 -8 50.5 -36t10.5 -52q-9 -33 -69 -38q-144 -11 -187 -19q-80 -14 -190 -56q-23 -70 -40 -137q224 64 391 64q32 0 51 -3t40.5 -20t21.5 -37q0 -12 -9 -21z" />
    <glyph glyph-name="G" unicode="G" horiz-adv-x="873" 
d="M640 190q-286 -190 -472 -190q-95 0 -144 51q-45 48 -45 132q0 46 15 101q61 226 282 383q213 151 442 151q43 0 50 -14q4 -9 -8 -55q-5 -19 -4 -56.5t-4 -56.5t-43 -41t-60 -22q-18 0 -20 45q-1 10 1 62q-203 -31 -346 -139q-74 -57 -131 -128q-72 -92 -72 -163
q0 -55 40.5 -87.5t101.5 -32.5q89 0 222 47q138 49 213 109q15 12 21 18q10 10 13 20q9 35 -76 35q-83 0 -278 -37q-32 -7 -66 -14q-42 -9 -64 -9t-22 18q0 26 37 62q31 30 60 44q42 19 161 32q96 11 161 11q214 0 214 -79q0 -76 -179 -197z" />
    <glyph glyph-name="H" unicode="H" horiz-adv-x="744" 
d="M783 795v-1l-3 -5l-6 -17l-24 -64q-30 -81 -58 -172q20 -6 37 -19q22 -17 22 -36q0 -42 -87 -42q-44 -166 -57 -256q-2 -31 -11 -91q-6 -24 -38 -39q-28 -13 -53 -13q-31 0 -32 22q-2 24 11 75l22 78q15 70 49 212q-207 -28 -380 -86q-28 -125 -35 -200q-1 -32 -11 -96
q-5 -20 -40 -34q-29 -13 -52 -13q-27 0 -29 20q-2 15 7 51q6 28 13 55q29 145 57 289q33 173 64 290q10 35 43 58q31 20 67 20t36 -24q0 -6 -29 -92q-33 -95 -60 -197q193 57 375 67l43 169q10 39 16 51q11 30 33 45q33 23 81 23q30 0 30 -19q0 -4 -1 -9z" />
    <glyph glyph-name="I" unicode="I" horiz-adv-x="594" 
d="M643 764q1 -11 -2 -23t-9 -17q-14 -16 -60 -19q-97 -7 -174 -14q-104 -300 -131 -560q5 1 95 25q60 16 95 16q23 0 23 -17t-23 -43.5t-42 -36.5q-66 -35 -192 -57q-110 -21 -193 -21q-80 0 -80 43q0 11 4 23q14 51 78 51q10 0 28.5 -1.5t26.5 -1.5q37 0 66 3
q36 183 130 548q-119 -47 -135 -47q-31 0 -31 48q0 75 59 105q138 68 317 68q67 0 96 -10q49 -15 54 -62z" />
    <glyph glyph-name="J" unicode="J" horiz-adv-x="847" 
d="M865 758q-1 -54 -28 -157q-47 -175 -137 -330q-66 -116 -175.5 -186t-228.5 -70q-121 0 -192 83q-65 77 -65 197q0 55 14 109t74 54q34 0 28 -62q-5 -40 -5 -66q0 -81 40 -127q59 -69 158 -69q81 0 154 43q77 45 116 122q28 55 52 147q41 151 41 220q0 18 -4 26
q-7 16 -41 16t-103 -15t-93 -15q-22 0 -14 28q19 70 72 91q76 28 224 28q79 0 100 -20q13 -15 13 -47z" />
    <glyph glyph-name="K" unicode="K" horiz-adv-x="750" 
d="M802 749q-4 -14 -56 -50q-19 -13 -256 -190q-152 -114 -236 -180q134 -129 287 -203q20 -9 39 -18q30 -14 27 -25q-4 -20 -50 -37q-40 -16 -63 -16q-21 0 -195 68q-103 40 -164 101q-4 -42 -19 -126q-6 -23 -37 -40q-27 -12 -53 -12q-28 0 -32 20q-3 14 68 307
q62 257 84 341q4 18 16 52q13 30 46 47q29 16 62 16q42 0 34 -28q-16 -41 -46 -124q-40 -111 -75 -242v-2l2 -1q474 356 528 370q17 5 38 5q52 0 52 -25q0 -4 -1 -8z" />
    <glyph glyph-name="L" unicode="L" horiz-adv-x="670" 
d="M535 108q-74 -39 -225 -68q-138 -26 -227 -26q-84 0 -93 34q-5 21 59 294q52 220 79 323q18 67 32 89q27 43 82 43q31 0 31 -19q0 -4 -37 -111q-96 -285 -120 -518q102 0 194 16q18 3 138 31q102 25 126 25q33 0 33 -24q0 -23 -26 -51q-21 -25 -46 -38z" />
    <glyph glyph-name="M" unicode="M" horiz-adv-x="931" 
d="M845 103q-7 -24 -40 -52.5t-56 -28.5q-12 0 -18 10q-6 15 -12 252q-3 145 -6 288q-84 -152 -169 -304q-139 -251 -153 -265q-18 -18 -32 -18q-17 0 -28 24q-9 19 -9 48q0 25 7 41q-3 68 -18 443q-75 -129 -269 -459q-15 -27 -50 -79q-15 -19 -28 -19q-18 0 -30 29
q-11 25 -11 52q0 9 2 16q4 14 29 51q20 25 38 51q82 118 171 280q76 141 152 284q28 51 67 51q23 0 23 -59q0 -12 -1.5 -32.5t-1.5 -22.5q-4 -173 28 -436q98 159 210 375q30 62 93 183q28 50 66 50q23 0 23 -67q0 -20 -2 -52q-3 -34 -3 -36q-9 -296 15 -482
q14 -112 13 -116z" />
    <glyph glyph-name="N" unicode="N" horiz-adv-x="795" 
d="M832 745q-92 -201 -154 -433q-23 -86 -34 -146q-3 -26 -12 -78q-17 -63 -101 -63q-29 0 -29 15q0 2 2 6l-301 488q-31 -93 -54 -177q-40 -151 -53 -251q-1 -25 -9 -77q-6 -22 -38 -38q-28 -13 -53 -13q-29 0 -32 22q-1 12 66 296q63 263 76 314q24 86 36 105
q29 45 100 45q25 0 32 -13l290 -489q10 32 82 259q25 87 86 262q24 58 99 58q26 0 26 -23q0 -12 -25 -69z" />
    <glyph glyph-name="O" unicode="O" horiz-adv-x="965" 
d="M937 456q-51 -189 -238 -329q-183 -136 -374 -136q-138 0 -222 79t-84 206q0 50 14 104q51 189 238 328q182 137 373 137q137 0 222 -79.5t85 -206.5q0 -50 -14 -103zM781 411q13 45 13 90q0 103 -61 170q-63 71 -169 71q-127 0 -243 -103q-111 -99 -145 -228
q-12 -45 -12 -89q0 -103 61 -170q63 -70 169 -70q127 0 242 103q111 97 145 226z" />
    <glyph glyph-name="P" unicode="P" horiz-adv-x="719" 
d="M750 574q-44 -162 -269 -262q-158 -72 -368 -99q-3 -55 -20 -164q-6 -22 -40 -37q-29 -14 -52 -14t-32 17q-8 14 111 484q-11 22 -2 55q14 50 129 136q180 134 334 134q92 0 154.5 -53.5t62.5 -137.5q0 -29 -8 -59zM623 574q0 56 -59 92q-50 32 -114 32q-106 0 -246 -110
q-41 -129 -70 -265q289 9 395 100q94 80 94 151z" />
    <glyph glyph-name="Q" unicode="Q" horiz-adv-x="946" 
d="M921 459q-48 -179 -220 -317q41 -20 47 -24q32 -19 27 -37q-4 -14 -24.5 -25t-35.5 -11q-21 0 -102 37q-148 -88 -301 -88q-141 0 -225.5 75t-84.5 201q0 51 16 108q50 190 235 329q182 137 373 137q138 0 223.5 -78.5t85.5 -204.5q0 -49 -14 -102zM778 499
q0 103 -57 170q-62 72 -165 72q-131 0 -248 -100q-114 -97 -149 -230q-13 -46 -13 -91q0 -101 60 -167q64 -69 169 -69q75 0 154 40q-190 105 -190 219q0 14 4 29q6 21 23 47q21 32 38 32q8 0 20 -14l96 -128q56 -72 110 -115q148 135 148 305z" />
    <glyph glyph-name="R" unicode="R" horiz-adv-x="741" 
d="M767 570q-37 -133 -205 -227q-124 -70 -292 -105q119 -81 212 -105q11 -2 33 -8q19 -9 15 -24q-5 -17 -26 -30.5t-38 -13.5q-65 0 -172 36q-98 32 -156 67q-1 -37 -12 -112q-7 -23 -37 -36q-26 -12 -50 -12q-30 0 -35 20q-6 25 106 471q-34 10 -34 54q0 30 42 70
q220 206 422 206q98 0 164 -50q70 -54 70 -141q0 -28 -7 -60zM651 579q0 56 -56 92q-50 31 -113 31q-105 0 -245 -110q-41 -129 -70 -265q282 8 390 99q94 80 94 153z" />
    <glyph glyph-name="S" unicode="S" horiz-adv-x="859" 
d="M794 367q-90 -159 -281 -264q-182 -102 -354 -102q-64 0 -93 20q-32 23 -51.5 68t-19.5 93q0 25 6 47q12 45 36 45q25 0 37 -28q9 -23 18 -47q41 -85 191 -85q93 0 178 37q98 42 150 120q25 38 25 57q0 18 -23 27q-71 31 -229 40q-123 4 -246 10q-62 6 -62 49q0 15 6 37
q14 52 123 147q237 206 511 206q37 0 45 -9.5t4 -33.5q-1 -36 -11 -111q-6 -20 -47 -43q-37 -20 -60 -20q-19 0 -19 78q-17 1 -32 1q-180 0 -325 -138q-12 -11 -27 -32q-3 -12 50 -12q-14 0 60 2h-1q87 0 230 -11q172 -14 214 -32q19 -7 19 -37q0 -39 -22 -79z" />
    <glyph glyph-name="T" unicode="T" horiz-adv-x="606" 
d="M694 754q6 -25 -10.5 -40.5t-70.5 -18.5q-104 -5 -197 -12q-106 -314 -131 -544q-1 -30 -10 -88q-4 -20 -40 -34q-29 -13 -51 -13q-27 0 -30 19q-5 37 150 638l-98 -32q-71 -24 -90 -24q-43 0 -43 55q0 70 65 98q162 68 389 68q70 0 104 -10q54 -16 63 -62z" />
    <glyph glyph-name="U" unicode="U" horiz-adv-x="757" 
d="M788 776q-17 -44 -49 -132q-93 -253 -123 -469q-3 -34 -15 -102q-6 -23 -39 -39q-27 -13 -52 -13q-30 0 -32 21q-2 7 28 128q-95 -47 -243 -95q-163 -53 -236 -53q-41 0 -41 31q0 12 7 35q12 38 12 39l3 12q37 174 122 523q19 75 38 101q30 41 97 41q33 0 33 -20
q0 -12 -17 -54q-11 -28 -23 -56q-44 -116 -101 -329q-34 -125 -34 -162q0 -18 20 -18q44 0 192 54q117 43 199 80q49 222 87 367q19 68 38 95q31 44 92 44q45 0 37 -29z" />
    <glyph glyph-name="V" unicode="V" horiz-adv-x="612" 
d="M685 730q-3 -11 -40 -59l-50 -64q-156 -210 -270 -457q-13 -38 -48 -105q-20 -29 -78 -29q-54 0 -67 30q-7 17 -16 261q-9 236 -9 379q0 66 3 76q13 48 82 48q31 0 31 -51q0 -19 -4 -48q-5 -36 -5 -37q-8 -86 -8 -175q0 -149 21 -300q51 83 155 249q42 70 83 138
q56 89 90.5 131.5t83.5 42.5q16 0 31 -6q18 -9 15 -24z" />
    <glyph glyph-name="W" unicode="W" horiz-adv-x="952" 
d="M956 637q-81 -117 -170 -279q-1 0 -152 -284q-28 -51 -66 -51q-15 0 -20 28q-3 12 -4 132q-1 68 -15 167q-10 82 -21 164q-159 -255 -292 -498q-28 -50 -67 -50q-16 0 -19 25.5t-1 64.5q1 32 3 64q5 326 -16 490q-4 29 -9 56q-5 43 -3 53q6 23 40 52t57 29q11 0 17 -10
q10 -21 11 -116q0 66 0 -128q0 -114 7 -297q78 140 243 393q63 96 104 96q18 0 22 -29q1 -7 2 -46q0 -21 15 -164q11 -106 17 -218q63 112 278 475q12 22 40 63q16 19 28 19q19 0 30.5 -27t11.5 -54q0 -10 -2 -17.5t-69 -102.5z" />
    <glyph glyph-name="X" unicode="X" horiz-adv-x="692" 
d="M737 752q0 -1 -60 -60q-128 -125 -274 -287q32 -58 45 -84q27 -46 51 -79q21 -22 54 -72q5 -12 0 -28q-6 -25 -32 -55q-27 -33 -50 -33q-8 0 -14 6q-19 17 -37 56q-14 31 -28 63q-24 44 -69 133q-101 -118 -161 -200q-20 -31 -65 -89q-20 -22 -52 -22q-21 0 -39 10
q-22 11 -22 30q0 4 1 8q4 14 292 356q-39 74 -77 146q-46 87 -66 153q-7 24 -1 49q7 24 27 49q24 29 46 29q13 0 21 -13q11 -15 20 -47l16 -52q42 -115 93 -220q64 76 127 151q76 89 134 147q29 28 64 28q24 0 44 -12q23 -13 23 -35q0 -13 -11 -26z" />
    <glyph glyph-name="Y" unicode="Y" horiz-adv-x="716" 
d="M827 771q-4 -13 -63 -72q-38 -37 -77 -74q-254 -256 -427 -488q-30 -42 -59 -85q-41 -49 -82 -49q-18 0 -36.5 11.5t-18.5 28.5q0 4 1.5 9t215.5 266l-86 177q-23 46 -47 92q-27 54 -42 95q-8 25 -2 47q5 20 32 51t47 31q9 0 17 -15q2 -5 25 -70q54 -160 135 -314
q32 37 236 275q32 39 99 112q31 28 66 28q23 0 45 -13t22 -34q0 -5 -1 -9z" />
    <glyph glyph-name="Z" unicode="Z" horiz-adv-x="752" 
d="M729 674q-21 -21 -57 -48q-54 -39 -60 -44q-273 -217 -495 -453q48 -4 102 -4q93 0 363 25q22 2 32 2q43 0 43 -22q0 -23 -30 -46q-24 -20 -50 -27q-138 -44 -405 -44q-106 0 -134 4q-92 12 -92 60q0 23 22 49q14 19 43 45q23 20 47 42q165 157 500 469q-25 1 -48 1
q-139 0 -293 -33q-11 -2 -19 -2q-48 0 -48 47q0 26 16 50q26 39 160 60q89 12 170 12q86 0 154 -13q112 -22 112 -73q0 -25 -33 -57z" />
    <glyph glyph-name="bracketleft" unicode="[" horiz-adv-x="552" 
d="M626 901q-7 -24 -22 -48q-20 -32 -40 -32q-28 0 -81.5 15t-87.5 15q-37 0 -101 -8q-77 -218 -128 -408q-20 -75 -47.5 -222.5t-47.5 -221.5q58 -6 91 -6q34 0 96 14t90 14q23 0 23 -44q0 -18 -4 -32q-7 -28 -25 -38q-22 -10 -213 -10h-77q-52 1 -77 1q-34 0 -34 47
q0 33 14 54q60 265 76 337q45 191 84 338q21 74 36 126q31 99 46 120q26 33 59 33q26 0 78 1h78q192 0 206.5 -9.5t7.5 -35.5z" />
    <glyph glyph-name="backslash" unicode="\" horiz-adv-x="690" 
d="M572 38q-5 -17 -35 -30q-25 -10 -46 -10q-32 0 -45 24q-9 19 -17 52q-11 48 -13 55q-84 276 -259 583q-29 53 -29 67q0 27 32 44q28 15 57 15q37 0 57 -30q15 -21 29 -57q11 -30 22 -61q66 -154 203 -519q14 -34 28 -67q20 -53 16 -66z" />
    <glyph glyph-name="bracketright" unicode="]" horiz-adv-x="580" 
d="M627 913q7 -34 -43 -221q-39 -144 -137 -462q-24 -78 -70 -233q-2 -7 -4.5 -20.5t-4.5 -20.5q-6 -21 -23 -42q-21 -24 -41 -24h-75q-51 -1 -76 -1q-200 0 -213 10t-5 38q6 24 21 46q20 30 38 30q27 0 82 -14t90 -14q34 0 93 6q20 73 70.5 218.5t69.5 219.5q53 193 94 414
q-60 8 -97 8q-35 0 -96.5 -15t-88.5 -15q-24 0 -24 42q0 19 5 34q8 30 26.5 39.5t214.5 9.5h76q52 -1 77 -1q34 0 41 -32z" />
    <glyph glyph-name="asciicircum" unicode="^" horiz-adv-x="428" 
d="M458 694q-3 -10 -17.5 -25t-28.5 -15q-15 0 -24 28q-29 82 -76 143q-12 -13 -131 -138q-28 -30 -46 -30q-11 0 -22 8q-13 10 -9 22q1 10 24 30q108 96 155 164q23 33 43 33q10 0 22 -7.5t13 -16.5q17 -29 78 -143q22 -40 19 -53z" />
    <glyph glyph-name="underscore" unicode="_" horiz-adv-x="794" 
d="M636 -77q-8 -28 -37 -35q-7 -2 -73 -4q-110 -4 -191 -4h-123q-153 0 -233 7q-63 5 -63 52q0 13 5 31q8 31 40 31q42 0 172 -13q99 -9 187 -9q60 0 187 14q77 9 85 9q47 0 47 -57q0 -10 -3 -22z" />
    <glyph glyph-name="grave" unicode="`" horiz-adv-x="378" 
d="M403 678q-8 -20 -25 -33q-20 -17 -37 -13q-16 3 -37 23t-81 63q-54 40 -79 66q-12 13 -12 28q0 13 7 29q10 22 31 40q24 21 43 17q13 -2 93 -82q75 -75 91 -96.5t6 -41.5z" />
    <glyph glyph-name="a" unicode="a" 
d="M678 97q-7 -25 -39 -47t-57 -22q-26 0 -38 53q-6 38 -11 76q-192 -44 -477 -94q-55 -80 -81 -80q-24 0 -39 23.5t-15 52.5q0 9 3 17q4 16 40 56q25 28 51 55q99 118 213 291q96 149 192 299q33 51 89 51q26 0 34 -26q6 -23 9 -63q3 -61 4 -65q28 -271 91 -466l20 -56
q15 -43 11 -55zM514 280q-19 125 -60 374q-66 -93 -307 -461q197 31 367 87z" />
    <glyph glyph-name="b" unicode="b" horiz-adv-x="787" 
d="M731 584q-31 -116 -207 -207q57 -18 98 -55q50 -46 50 -98q0 -16 -4 -31q-26 -98 -214 -156q-114 -35 -330 -35q-51 0 -66 2q-41 6 -49 28q-9 24 96 445q-4 -1 -8 -1q-28 0 -28 42q0 13 3 26q14 51 109 130q80 66 147 100q94 48 196 48q98 0 156 -42q61 -45 61 -128
q0 -32 -10 -68zM638 598q0 49 -56 79q-46 23 -105 23q-105 0 -242 -109q-29 -98 -56 -209q274 7 375 87q84 67 84 129zM573 202q0 43 -94 71q-73 22 -134 22q-102 0 -198 -60q-10 -60 -16 -113q104 -8 181 -8q151 0 206 29t55 59z" />
    <glyph glyph-name="c" unicode="c" horiz-adv-x="768" 
d="M767 744q-4 -16 -2 -47.5t-2 -48.5q-7 -24 -43.5 -47t-62.5 -23q-21 0 -21 48q0 12 1.5 32.5t1.5 25.5q-231 -35 -380 -165q-65 -56 -110 -119q-58 -82 -58 -145q0 -58 47 -91q43 -32 109 -32q69 0 178 40q67 24 172 74q84 40 92 40q14 0 14 -19q0 -11 -5 -30t-40 -43
q-26 -15 -54 -31q-266 -157 -434 -157q-92 0 -140 52q-44 46 -44 129q0 45 14 95q62 229 282 388q213 153 445 153q51 0 51 -25q0 3 -11 -54z" />
    <glyph glyph-name="d" unicode="d" horiz-adv-x="816" 
d="M813 485q-48 -179 -258 -306q-169 -103 -382 -143q-36 -6 -110 -19l-59 -14q-15 0 -20 18t111 484q-12 21 -4 52q8 28 35 55q13 13 54 44q210 161 395 161q112 0 181 -69t69 -176q0 -43 -12 -87zM677 453q8 31 8 61q0 79 -55 130t-140 51q-127 0 -274 -111
q-77 -236 -101 -452q184 16 326 81q195 88 236 240z" />
    <glyph glyph-name="e" unicode="e" horiz-adv-x="734" 
d="M732 482q-6 -25 -73 -33q-326 -36 -507 -92q-29 -121 -42 -234q90 0 213 23l216 44q19 4 30 4q33 0 33 -22q0 -24 -27 -53q-22 -25 -46 -37q-92 -46 -238 -71q-123 -21 -237 -21q-59 0 -69 31q-6 21 64 314q-26 10 -26 42q0 24 15.5 45.5t38.5 30.5h1q21 97 50 205
q4 22 18 60q10 20 30 32q12 8 54 20q67 19 134 39q75 19 133 19h40q52 1 71 -4q34 -8 51.5 -36.5t10.5 -52.5q-9 -32 -68 -37q-147 -12 -187 -19q-80 -14 -190 -56q-23 -66 -42 -140q244 67 426 67q36 0 55 -3q24 -3 47 -22q27 -21 21 -43z" />
    <glyph glyph-name="f" unicode="f" horiz-adv-x="677" 
d="M671 466q-15 -15 -61 -20q-289 -32 -466 -89q-14 -61 -26 -151q-4 -50 -20 -149q-7 -25 -39 -40q-27 -13 -54 -13t-31 18q-3 22 67 310q-25 8 -25 42q0 25 15 48.5t39 28.5q16 68 49 201q12 46 14 52q12 28 35 43q12 8 55 20q133 38 153 43q71 15 153 15q53 0 72 -4
q33 -8 50.5 -36t10.5 -52q-9 -33 -69 -38q-144 -11 -187 -19q-80 -14 -190 -56q-23 -70 -40 -137q224 64 391 64q32 0 51 -3t40.5 -20t21.5 -37q0 -12 -9 -21z" />
    <glyph glyph-name="g" unicode="g" horiz-adv-x="873" 
d="M640 190q-286 -190 -472 -190q-95 0 -144 51q-45 48 -45 132q0 46 15 101q61 226 282 383q213 151 442 151q43 0 50 -14q4 -9 -8 -55q-5 -19 -4 -56.5t-4 -56.5t-43 -41t-60 -22q-18 0 -20 45q-1 10 1 62q-203 -31 -346 -139q-74 -57 -131 -128q-72 -92 -72 -163
q0 -55 40.5 -87.5t101.5 -32.5q89 0 222 47q138 49 213 109q15 12 21 18q10 10 13 20q9 35 -76 35q-83 0 -278 -37q-32 -7 -66 -14q-42 -9 -64 -9t-22 18q0 26 37 62q31 30 60 44q42 19 161 32q96 11 161 11q214 0 214 -79q0 -76 -179 -197z" />
    <glyph glyph-name="h" unicode="h" horiz-adv-x="744" 
d="M783 795v-1l-3 -5l-6 -17l-24 -64q-30 -81 -58 -172q20 -6 37 -19q22 -17 22 -36q0 -42 -87 -42q-44 -166 -57 -256q-2 -31 -11 -91q-6 -24 -38 -39q-28 -13 -53 -13q-31 0 -32 22q-2 24 11 75l22 78q15 70 49 212q-207 -28 -380 -86q-28 -125 -35 -200q-1 -32 -11 -96
q-5 -20 -40 -34q-29 -13 -52 -13q-27 0 -29 20q-2 15 7 51q6 28 13 55q29 145 57 289q33 173 64 290q10 35 43 58q31 20 67 20t36 -24q0 -6 -29 -92q-33 -95 -60 -197q193 57 375 67l43 169q10 39 16 51q11 30 33 45q33 23 81 23q30 0 30 -19q0 -4 -1 -9z" />
    <glyph glyph-name="i" unicode="i" horiz-adv-x="283" 
d="M260 644q-41 -114 -73 -229q-39 -147 -54 -252q-2 -31 -13 -96q-6 -20 -39 -35q-28 -11 -52 -11q-31 0 -31 30q0 4 19 78l4 17q43 191 138 573q23 84 119 84q33 0 33 -20q0 -12 -23 -67z" />
    <glyph glyph-name="j" unicode="j" horiz-adv-x="847" 
d="M865 758q-1 -54 -28 -157q-47 -175 -137 -330q-66 -116 -175.5 -186t-228.5 -70q-121 0 -192 83q-65 77 -65 197q0 55 14 109t74 54q34 0 28 -62q-5 -40 -5 -66q0 -81 40 -127q59 -69 158 -69q81 0 154 43q77 45 116 122q28 55 52 147q41 151 41 220q0 18 -4 26
q-7 16 -41 16t-103 -15t-93 -15q-22 0 -14 28q19 70 72 91q76 28 224 28q79 0 100 -20q13 -15 13 -47z" />
    <glyph glyph-name="k" unicode="k" horiz-adv-x="750" 
d="M802 749q-4 -14 -56 -50q-19 -13 -256 -190q-152 -114 -236 -180q134 -129 287 -203q20 -9 39 -18q30 -14 27 -25q-4 -20 -50 -37q-40 -16 -63 -16q-21 0 -195 68q-103 40 -164 101q-4 -42 -19 -126q-6 -23 -37 -40q-27 -12 -53 -12q-28 0 -32 20q-3 14 68 307
q62 257 84 341q4 18 16 52q13 30 46 47q29 16 62 16q42 0 34 -28q-16 -41 -46 -124q-40 -111 -75 -242v-2l2 -1q474 356 528 370q17 5 38 5q52 0 52 -25q0 -4 -1 -8z" />
    <glyph glyph-name="l" unicode="l" horiz-adv-x="670" 
d="M535 108q-74 -39 -225 -68q-138 -26 -227 -26q-84 0 -93 34q-5 21 59 294q52 220 79 323q18 67 32 89q27 43 82 43q31 0 31 -19q0 -4 -37 -111q-96 -285 -120 -518q102 0 194 16q18 3 138 31q102 25 126 25q33 0 33 -24q0 -23 -26 -51q-21 -25 -46 -38z" />
    <glyph glyph-name="m" unicode="m" horiz-adv-x="931" 
d="M845 103q-7 -24 -40 -52.5t-56 -28.5q-12 0 -18 10q-6 15 -12 252q-3 145 -6 288q-84 -152 -169 -304q-139 -251 -153 -265q-18 -18 -32 -18q-17 0 -28 24q-9 19 -9 48q0 25 7 41q-3 68 -18 443q-75 -129 -269 -459q-15 -27 -50 -79q-15 -19 -28 -19q-18 0 -30 29
q-11 25 -11 52q0 9 2 16q4 14 29 51q20 25 38 51q82 118 171 280q76 141 152 284q28 51 67 51q23 0 23 -59q0 -12 -1.5 -32.5t-1.5 -22.5q-4 -173 28 -436q98 159 210 375q30 62 93 183q28 50 66 50q23 0 23 -67q0 -20 -2 -52q-3 -34 -3 -36q-9 -296 15 -482
q14 -112 13 -116z" />
    <glyph glyph-name="n" unicode="n" horiz-adv-x="795" 
d="M832 745q-92 -201 -154 -433q-23 -86 -34 -146q-3 -26 -12 -78q-17 -63 -101 -63q-29 0 -29 15q0 2 2 6l-301 488q-31 -93 -54 -177q-40 -151 -53 -251q-1 -25 -9 -77q-6 -22 -38 -38q-28 -13 -53 -13q-29 0 -32 22q-1 12 66 296q63 263 76 314q24 86 36 105
q29 45 100 45q25 0 32 -13l290 -489q10 32 82 259q25 87 86 262q24 58 99 58q26 0 26 -23q0 -12 -25 -69z" />
    <glyph glyph-name="o" unicode="o" horiz-adv-x="965" 
d="M937 456q-51 -189 -238 -329q-183 -136 -374 -136q-138 0 -222 79t-84 206q0 50 14 104q51 189 238 328q182 137 373 137q137 0 222 -79.5t85 -206.5q0 -50 -14 -103zM781 411q13 45 13 90q0 103 -61 170q-63 71 -169 71q-127 0 -243 -103q-111 -99 -145 -228
q-12 -45 -12 -89q0 -103 61 -170q63 -70 169 -70q127 0 242 103q111 97 145 226z" />
    <glyph glyph-name="p" unicode="p" horiz-adv-x="719" 
d="M750 574q-44 -162 -269 -262q-158 -72 -368 -99q-3 -55 -20 -164q-6 -22 -40 -37q-29 -14 -52 -14t-32 17q-8 14 111 484q-11 22 -2 55q14 50 129 136q180 134 334 134q92 0 154.5 -53.5t62.5 -137.5q0 -29 -8 -59zM623 574q0 56 -59 92q-50 32 -114 32q-106 0 -246 -110
q-41 -129 -70 -265q289 9 395 100q94 80 94 151z" />
    <glyph glyph-name="q" unicode="q" horiz-adv-x="946" 
d="M921 459q-48 -179 -220 -317q41 -20 47 -24q32 -19 27 -37q-4 -14 -24.5 -25t-35.5 -11q-21 0 -102 37q-148 -88 -301 -88q-141 0 -225.5 75t-84.5 201q0 51 16 108q50 190 235 329q182 137 373 137q138 0 223.5 -78.5t85.5 -204.5q0 -49 -14 -102zM778 499
q0 103 -57 170q-62 72 -165 72q-131 0 -248 -100q-114 -97 -149 -230q-13 -46 -13 -91q0 -101 60 -167q64 -69 169 -69q75 0 154 40q-190 105 -190 219q0 14 4 29q6 21 23 47q21 32 38 32q8 0 20 -14l96 -128q56 -72 110 -115q148 135 148 305z" />
    <glyph glyph-name="r" unicode="r" horiz-adv-x="741" 
d="M767 570q-37 -133 -205 -227q-124 -70 -292 -105q119 -81 212 -105q11 -2 33 -8q19 -9 15 -24q-5 -17 -26 -30.5t-38 -13.5q-65 0 -172 36q-98 32 -156 67q-1 -37 -12 -112q-7 -23 -37 -36q-26 -12 -50 -12q-30 0 -35 20q-6 25 106 471q-34 10 -34 54q0 30 42 70
q220 206 422 206q98 0 164 -50q70 -54 70 -141q0 -28 -7 -60zM651 579q0 56 -56 92q-50 31 -113 31q-105 0 -245 -110q-41 -129 -70 -265q282 8 390 99q94 80 94 153z" />
    <glyph glyph-name="s" unicode="s" horiz-adv-x="859" 
d="M794 367q-90 -159 -281 -264q-182 -102 -354 -102q-64 0 -93 20q-32 23 -51.5 68t-19.5 93q0 25 6 47q12 45 36 45q25 0 37 -28q9 -23 18 -47q41 -85 191 -85q93 0 178 37q98 42 150 120q25 38 25 57q0 18 -23 27q-71 31 -229 40q-123 4 -246 10q-62 6 -62 49q0 15 6 37
q14 52 123 147q237 206 511 206q37 0 45 -9.5t4 -33.5q-1 -36 -11 -111q-6 -20 -47 -43q-37 -20 -60 -20q-19 0 -19 78q-17 1 -32 1q-180 0 -325 -138q-12 -11 -27 -32q-3 -12 50 -12q-14 0 60 2h-1q87 0 230 -11q172 -14 214 -32q19 -7 19 -37q0 -39 -22 -79z" />
    <glyph glyph-name="t" unicode="t" horiz-adv-x="606" 
d="M694 754q6 -25 -10.5 -40.5t-70.5 -18.5q-104 -5 -197 -12q-106 -314 -131 -544q-1 -30 -10 -88q-4 -20 -40 -34q-29 -13 -51 -13q-27 0 -30 19q-5 37 150 638l-98 -32q-71 -24 -90 -24q-43 0 -43 55q0 70 65 98q162 68 389 68q70 0 104 -10q54 -16 63 -62z" />
    <glyph glyph-name="u" unicode="u" horiz-adv-x="757" 
d="M788 776q-17 -44 -49 -132q-93 -253 -123 -469q-3 -34 -15 -102q-6 -23 -39 -39q-27 -13 -52 -13q-30 0 -32 21q-2 7 28 128q-95 -47 -243 -95q-163 -53 -236 -53q-41 0 -41 31q0 12 7 35q12 38 12 39l3 12q37 174 122 523q19 75 38 101q30 41 97 41q33 0 33 -20
q0 -12 -17 -54q-11 -28 -23 -56q-44 -116 -101 -329q-34 -125 -34 -162q0 -18 20 -18q44 0 192 54q117 43 199 80q49 222 87 367q19 68 38 95q31 44 92 44q45 0 37 -29z" />
    <glyph glyph-name="v" unicode="v" horiz-adv-x="612" 
d="M685 730q-3 -11 -40 -59l-50 -64q-156 -210 -270 -457q-13 -38 -48 -105q-20 -29 -78 -29q-54 0 -67 30q-7 17 -16 261q-9 236 -9 379q0 66 3 76q13 48 82 48q31 0 31 -51q0 -19 -4 -48q-5 -36 -5 -37q-8 -86 -8 -175q0 -149 21 -300q51 83 155 249q42 70 83 138
q56 89 90.5 131.5t83.5 42.5q16 0 31 -6q18 -9 15 -24z" />
    <glyph glyph-name="w" unicode="w" horiz-adv-x="952" 
d="M956 637q-81 -117 -170 -279q-1 0 -152 -284q-28 -51 -66 -51q-15 0 -20 28q-3 12 -4 132q-1 68 -15 167q-10 82 -21 164q-159 -255 -292 -498q-28 -50 -67 -50q-16 0 -19 25.5t-1 64.5q1 32 3 64q5 326 -16 490q-4 29 -9 56q-5 43 -3 53q6 23 40 52t57 29q11 0 17 -10
q10 -21 11 -116q0 66 0 -128q0 -114 7 -297q78 140 243 393q63 96 104 96q18 0 22 -29q1 -7 2 -46q0 -21 15 -164q11 -106 17 -218q63 112 278 475q12 22 40 63q16 19 28 19q19 0 30.5 -27t11.5 -54q0 -10 -2 -17.5t-69 -102.5z" />
    <glyph glyph-name="x" unicode="x" horiz-adv-x="692" 
d="M737 752q0 -1 -60 -60q-128 -125 -274 -287q32 -58 45 -84q27 -46 51 -79q21 -22 54 -72q5 -12 0 -28q-6 -25 -32 -55q-27 -33 -50 -33q-8 0 -14 6q-19 17 -37 56q-14 31 -28 63q-24 44 -69 133q-101 -118 -161 -200q-20 -31 -65 -89q-20 -22 -52 -22q-21 0 -39 10
q-22 11 -22 30q0 4 1 8q4 14 292 356q-39 74 -77 146q-46 87 -66 153q-7 24 -1 49q7 24 27 49q24 29 46 29q13 0 21 -13q11 -15 20 -47l16 -52q42 -115 93 -220q64 76 127 151q76 89 134 147q29 28 64 28q24 0 44 -12q23 -13 23 -35q0 -13 -11 -26z" />
    <glyph glyph-name="y" unicode="y" horiz-adv-x="716" 
d="M827 771q-4 -13 -63 -72q-38 -37 -77 -74q-254 -256 -427 -488q-30 -42 -59 -85q-41 -49 -82 -49q-18 0 -36.5 11.5t-18.5 28.5q0 4 1.5 9t215.5 266l-86 177q-23 46 -47 92q-27 54 -42 95q-8 25 -2 47q5 20 32 51t47 31q9 0 17 -15q2 -5 25 -70q54 -160 135 -314
q32 37 236 275q32 39 99 112q31 28 66 28q23 0 45 -13t22 -34q0 -5 -1 -9z" />
    <glyph glyph-name="z" unicode="z" horiz-adv-x="752" 
d="M729 674q-21 -21 -57 -48q-54 -39 -60 -44q-273 -217 -495 -453q48 -4 102 -4q93 0 363 25q22 2 32 2q43 0 43 -22q0 -23 -30 -46q-24 -20 -50 -27q-138 -44 -405 -44q-106 0 -134 4q-92 12 -92 60q0 23 22 49q14 19 43 45q23 20 47 42q165 157 500 469q-25 1 -48 1
q-139 0 -293 -33q-11 -2 -19 -2q-48 0 -48 47q0 26 16 50q26 39 160 60q89 12 170 12q86 0 154 -13q112 -22 112 -73q0 -25 -33 -57z" />
    <glyph glyph-name="braceleft" unicode="{" horiz-adv-x="868" 
d="M809 689q-6 -21 -39.5 -51t-54.5 -30q-4 0 -50 47q-53 54 -56 57q-30 25 -119 62q-20 7 -53 24q-8 7 -5 18q5 23 37 48t54 25q19 0 144 -83.5t140 -104.5q3 -5 2 -12zM644 446q-9 -30 -28 -52q-22 -26 -52 -26q-1 0 -60 8q-94 13 -150 13q-69 0 -211 -18
q-87 -11 -100 -11q-23 0 -23 23q0 7 2 15q8 32 32.5 53.5t55.5 25.5q20 2 132 5q162 6 276 6q99 0 112 -5q21 -7 14 -37zM665 141q-19 -8 -45 -19q-123 -52 -215 -125q-100 -79 -107 -79q-16 0 -26 19q-7 17 -7 40q0 31 24 51q29 24 185 120q160 99 173 99q16 0 25 -25
q9 -21 9 -46t-16 -35z" />
    <glyph glyph-name="bar" unicode="|" horiz-adv-x="297" 
d="M342 879l-60 -171q-51 -151 -90 -296q-51 -194 -73 -315q-4 -43 -20 -130q-7 -25 -39 -44.5t-57 -19.5q-29 0 -29 28q0 21 9 55q8 29 16 57l5 18q58 245 181 736q32 118 127 118q32 0 32 -24q0 -5 -2 -12z" />
    <glyph glyph-name="braceright" unicode="}" horiz-adv-x="944" 
d="M607 777q-28 -24 -184 -121q-160 -98 -175 -98q-16 0 -24 23q-8 19 -8 43q0 27 15 41q68 29 160 73q15 9 112 82q90 69 97 69q14 0 24 -22q8 -17 8 -41q0 -28 -25 -49zM875 406q-18 -66 -88 -77q-22 -3 -140 -8q-140 -5 -253 -5t-127 6q-23 8 -15 36q8 29 26 51
q23 28 49 28q8 0 65 -7q97 -14 150 -14q77 0 210 17q95 11 102 11q24 0 24 -22q0 -7 -3 -16zM466 -8q-7 -23 -38.5 -49t-55.5 -26q-19 0 -143 83t-139 104q-4 6 -2 13q6 21 39.5 50.5t54.5 29.5q5 0 50 -47q52 -54 54 -56q35 -31 126 -67q17 -6 33 -12q24 -11 21 -23z" />
    <glyph glyph-name="asciitilde" unicode="~" horiz-adv-x="627" 
d="M584 463q-11 -42 -75 -81q-61 -36 -105 -36q-40 0 -108 36.5t-102 36.5q-30 0 -78 -36t-58 -36q-20 0 -20 41q0 23 5 41q11 39 59 72q45 30 85 30t110.5 -35.5t115.5 -35.5q33 0 79 31q37 29 74 56q22 -1 22 -52q0 -19 -4 -32z" />
    <glyph glyph-name="dieresis" unicode="&#xa8;" horiz-adv-x="404" 
 />
    <glyph glyph-name="copyright" unicode="&#xa9;" horiz-adv-x="963" 
d="M930 486q-51 -190 -246 -354q-200 -167 -388 -167q-125 0 -201 75t-76 192q0 48 12 98q52 191 245 356q199 168 388 168q125 0 202 -76.5t77 -194.5q0 -48 -13 -97zM784 423q13 49 13 98q0 95 -46 157q-51 68 -144 68q-77 0 -172 -48q-212 -107 -269 -316
q-13 -50 -13 -100q0 -95 45 -156q51 -67 144 -67q77 0 173 48q214 110 269 316zM700 506q-5 -17 -31 -29q-23 -11 -40 -11q-12 0 -37 26.5t-52 26.5q-43 0 -111 -52t-79 -95q-4 -14 -4 -25q0 -71 102 -71q45 0 112.5 40t91.5 40q13 0 12 -10q-32 -66 -143 -116
q-101 -45 -182 -45q-51 0 -81 20q-33 23 -33 65q0 15 4 34q22 80 150 211q107 110 205 110q48 0 79 -38q44 -54 37 -81z" />
    <glyph glyph-name="registered" unicode="&#xae;" horiz-adv-x="967" 
d="M934 486q-51 -192 -248 -356q-202 -167 -392 -167q-122 0 -198 79q-74 76 -74 193q0 137 107 286q100 141 250 236q154 97 289 97q126 0 202.5 -76.5t76.5 -194.5q0 -47 -13 -97zM788 424q14 50 14 98q0 96 -48 156q-52 66 -148 66q-138 0 -270 -113q-128 -110 -166 -250
q-13 -48 -13 -97q0 -96 46 -157q51 -68 144 -68q77 0 172 48q214 110 269 317zM700 488q-21 -79 -101 -126q-55 -32 -155 -56l123 -77q28 -17 23 -35q-3 -10 -27 -10q-13 0 -28 5l-196 81q-2 -30 -11 -88q-4 -13 -21 -20.5t-31 -7.5q-18 0 -20 13q-6 27 70 311
q-30 -32 -42 -32t-17 15.5t-2 27.5q5 18 52 58q118 99 217 99q70 0 117 -29q54 -32 54 -91q0 -18 -5 -38zM629 478q3 9 3 19q0 36 -36 59q-32 19 -73 19q-52 0 -119 -39q-29 -89 -48 -176l10 -6q233 9 263 124z" />
    <glyph glyph-name="Agrave" unicode="&#xc0;" 
d="M655 97q-7 -25 -38.5 -47t-56.5 -22q-27 0 -39 53l-10 76q-193 -44 -478 -94q-54 -80 -81 -80q-23 0 -38.5 23.5t-15.5 52.5q0 9 2 17q5 16 41 56q26 28 51 55q100 118 213 291q97 149 192 299q8 13 17 23q-36 25 -102 83q-11 12 -11 27q0 13 7 28q10 23 31 41
q23 21 43 17q13 -3 93 -82q75 -74 91 -96t6 -43q-14 -33 -43 -44q13 -268 96 -523l20 -56q14 -43 10 -55zM490 280q-17 125 -58 374q-67 -93 -307 -461q195 31 365 87z" />
    <glyph glyph-name="Aacute" unicode="&#xc1;" 
d="M735 918q-3 -35 -34 -57q-26 -17 -172 -95q2 -32 6 -92q29 -271 92 -466q11 -28 20 -56q14 -43 11 -55q-7 -25 -39 -47t-57 -22q-26 0 -39 53q-4 38 -9 76q-193 -44 -478 -94q-56 -80 -81 -80q-23 0 -38.5 23.5t-15.5 52.5q0 9 2 17q5 16 41 56q26 28 51 55
q97 114 204 277q92 143 184 287v4q1 20 29 42l12 9t18 12q222 152 249 158q23 3 34.5 -17t9.5 -41zM493 280q-17 125 -58 374q-67 -93 -308 -461q196 31 366 87z" />
    <glyph glyph-name="Acircumflex" unicode="&#xc2;" 
d="M640 807q-3 -12 -17 -25q-16 -15 -30 -15t-24 26q-28 82 -75 144q-13 -13 -132 -139q-27 -28 -46 -28q-10 0 -21 7q-14 10 -10 22q2 10 25 29q108 97 155 165q22 32 43 32q10 0 21.5 -6.5t13.5 -17.5q17 -27 78 -143q22 -39 19 -51zM651 97q-6 -25 -38 -47t-57 -22
q-27 0 -38 53q-6 38 -11 76q-193 -44 -478 -94q-54 -80 -81 -80q-23 0 -38 23.5t-15 52.5q0 9 1 17q5 16 41 56q26 28 51 55q100 118 213 291q97 149 193 299q33 51 88 51q27 0 35 -26q5 -23 8 -63q3 -61 3 -65q30 -271 93 -466l20 -56q14 -43 10 -55zM486 280
q-17 125 -58 374q-67 -93 -307 -461q195 31 365 87z" />
    <glyph glyph-name="Atilde" unicode="&#xc3;" 
d="M664 97q-7 -25 -39 -47t-57 -22q-26 0 -39 53q-5 38 -9 76q-193 -44 -478 -94q-56 -80 -81 -80q-24 0 -39 23.5t-15 52.5q0 9 2 17q5 16 41 56q26 28 51 55q100 118 213 291q96 149 192 299q32 50 86 51q-50 26 -69 26q-18 0 -47 -22t-36 -22q-11 0 -12 21q0 17 3 29
q7 24 35.5 43.5t53.5 19.5q23 0 66 -22t71 -22q20 0 48 19q23 17 45 34q10 0 13 -21q2 -17 -2 -30q-7 -26 -45 -48.5t-64 -22.5q-14 0 -29 4q11 -17 14 -68l4 -72q29 -271 92 -466q11 -28 20 -56q14 -43 11 -55zM499 280q-18 125 -59 374q-66 -93 -307 -461q196 31 366 87z
" />
    <glyph glyph-name="Adieresis" unicode="&#xc4;" 
d="M705 931q-3 -11 -25 -56t-30 -56q-13 -19 -46 -19q-36 0 -29 24q17 66 33 102q10 21 58 21q43 0 39 -16zM450 937q-3 -10 -25 -55t-29 -56q-14 -19 -47 -19q-36 0 -30 24q18 65 35 102q8 21 57 21q43 0 39 -17zM661 97q-7 -25 -39 -47t-57 -22q-26 0 -39 53q-5 38 -9 76
q-193 -44 -478 -94q-56 -80 -81 -80q-23 0 -38.5 23.5t-15.5 52.5q0 9 2 17q5 16 41 56q26 28 51 55q100 118 213 291q96 149 192 299q33 51 89 51q27 0 33 -26q7 -23 9 -63q4 -61 4 -65q29 -271 92 -466q11 -28 20 -56q14 -43 11 -55zM496 280q-17 125 -59 374
q-66 -93 -307 -461q196 31 366 87z" />
    <glyph glyph-name="Aring" unicode="&#xc5;" 
d="M660 97q-7 -25 -39 -47t-58 -22t-38 53q-4 38 -10 76q-192 -44 -477 -94q-56 -80 -81 -80q-23 0 -38.5 23.5t-15.5 52.5q0 9 2 17q4 16 40 56q26 28 52 55q100 118 213 291q96 149 191 299q13 20 27 31q-25 15 -25 46q0 42 38.5 75.5t80.5 33.5q28 0 44.5 -15t16.5 -41
q0 -56 -64 -93q10 -16 14 -67q2 -37 4 -73q28 -271 92 -466l20 -56q14 -43 11 -55zM540 894q0 37 -35 37q-23 0 -42 -21t-19 -44q0 -37 35 -37q23 0 42 21t19 44zM495 280q-18 125 -58 374q-67 -93 -308 -461q196 31 366 87z" />
    <glyph glyph-name="Egrave" unicode="&#xc8;" horiz-adv-x="734" 
d="M710 482q-7 -25 -73 -33q-326 -36 -507 -92q-29 -121 -42 -234q90 0 213 23q107 22 216 44q18 4 30 4q32 0 32 -22q0 -24 -26 -53q-23 -25 -46 -37q-92 -46 -238 -71q-123 -21 -238 -21q-57 0 -68 31q-7 21 63 314q-25 10 -25 42q0 24 15 45.5t39 30.5h1q20 97 49 205
q4 22 18 60q11 20 30 32q13 8 55 20q36 10 109 32q-35 24 -97 80q-12 12 -12 27q0 13 7 28q11 23 31 41q24 21 43 17q11 -2 79 -69q62 -60 96 -98h11h40q51 1 71 -4q33 -8 50.5 -36.5t10.5 -52.5q-7 -32 -68 -37q-146 -12 -186 -19q-81 -14 -191 -56q-22 -66 -42 -140
q244 67 428 67q34 0 56 -3t44 -22q28 -21 22 -43z" />
    <glyph glyph-name="Eacute" unicode="&#xc9;" horiz-adv-x="734" 
d="M713 482q-7 -25 -73 -33q-327 -36 -507 -92q-29 -121 -42 -234q91 0 213 23l216 44q18 4 30 4q32 0 32 -22q0 -24 -26 -53q-23 -25 -46 -37q-92 -46 -238 -71q-123 -21 -238 -21q-57 0 -68 31q-7 21 64 314q-26 10 -26 42q0 24 15.5 45.5t38.5 30.5h1q20 97 49 205
q5 22 19 60q10 20 29 32q13 8 55 20q24 6 73 21l3 3q26 21 144 97q122 79 135 81q22 4 33.5 -15.5t10.5 -41.5q-3 -35 -35 -57q-21 -14 -48 -30q45 1 66 -5q30 -9 47 -35q17 -29 10 -53q-7 -32 -68 -37q-146 -12 -186 -19q-81 -14 -190 -56q-23 -66 -43 -140q244 67 428 67
q34 0 56 -3t45 -22q27 -21 21 -43z" />
    <glyph glyph-name="Ecircumflex" unicode="&#xca;" horiz-adv-x="734" 
d="M707 482q-7 -25 -73 -33q-326 -36 -508 -92q-28 -121 -41 -234q90 0 213 23q107 22 216 44q18 4 30 4q32 0 32 -22q0 -24 -26 -53q-23 -25 -46 -37q-92 -46 -238 -71q-123 -21 -238 -21q-58 0 -68 31q-7 21 63 314q-25 10 -25 42q0 24 15 45.5t39 30.5h1q20 97 50 205
q3 22 17 60q11 20 30 32q13 8 55 20q11 2 24 6q-4 8 -2 16q2 10 24 29q108 97 155 164q23 34 44 34q9 0 21 -7.5t13 -17.5q18 -28 79 -142l15 -27q36 -7 54.5 -36.5t12.5 -53.5q-9 -32 -69 -37q-146 -12 -186 -19q-80 -14 -191 -56q-22 -66 -42 -140q244 67 427 67
q35 0 55 -3q23 -3 47 -22q27 -21 21 -43zM495 828q-24 57 -58 102q-24 -25 -122 -128q92 26 157 26h23z" />
    <glyph glyph-name="Edieresis" unicode="&#xcb;" horiz-adv-x="734" 
d="M656 979q-3 -11 -25 -56t-28 -56q-14 -19 -47 -19q-35 0 -30 24q18 65 35 102q8 21 57 21q43 0 38 -16zM401 985q-3 -10 -25 -55t-28 -56q-15 -20 -47 -20q-36 0 -30 25q18 65 35 101q8 22 57 22q43 0 38 -17zM709 482q-7 -25 -73 -33q-326 -36 -507 -92
q-29 -121 -42 -234q91 0 213 23l216 44q18 4 30 4q32 0 32 -22q0 -24 -26 -53q-23 -25 -46 -37q-92 -46 -237 -71q-123 -21 -239 -21q-57 0 -68 31q-7 21 64 314q-26 10 -26 42q0 24 15 45.5t39 30.5h1q20 97 49 205q5 22 19 60q10 20 29 32q13 8 55 20q66 19 134 39
q76 19 133 19h40q51 1 71 -4q33 -8 50.5 -36.5t10.5 -52.5q-7 -32 -68 -37q-146 -12 -185 -19q-81 -14 -191 -56q-23 -66 -43 -140q244 67 428 67q34 0 56 -3t45 -22q27 -21 21 -43z" />
    <glyph glyph-name="Igrave" unicode="&#xcc;" horiz-adv-x="594" 
d="M624 764q1 -11 -2.5 -23t-8.5 -17q-14 -16 -60 -19q-98 -7 -173 -14q-106 -300 -133 -560q6 1 96 25q59 16 94 16q24 0 24 -17t-23.5 -43.5t-41.5 -36.5q-67 -35 -193 -57q-109 -21 -192 -21q-79 0 -79 43q0 11 3 23q13 51 79 51q9 0 28 -1.5t26 -1.5q37 0 66 3
q36 183 131 548q-119 -47 -135 -47q-32 0 -32 48q0 75 59 105q50 25 111 41q-42 31 -66 56q-12 12 -12 28q0 13 8 28q10 22 31 40q24 21 43 18q21 -4 154 -145q24 2 48 2q66 0 95 -10q49 -15 55 -62z" />
    <glyph glyph-name="Iacute" unicode="&#xcd;" horiz-adv-x="594" 
d="M620 764q1 -11 -2 -23t-9 -17q-14 -16 -59 -19q-99 -7 -174 -14q-105 -300 -133 -560q6 1 97 25q58 16 94 16q23 0 23 -17t-23 -43.5t-41 -36.5q-68 -35 -193 -57q-110 -21 -193 -21q-79 0 -79 43q0 11 4 23q12 51 78 51q10 0 28.5 -1.5t25.5 -1.5q38 0 67 3
q36 183 130 548q-119 -47 -135 -47q-31 0 -31 48q0 75 58 105q39 19 84 33q7 12 25 27q28 22 144 97q122 79 136 81q21 4 33 -15.5t10 -41.5q-2 -36 -51 -69q-10 -7 -80 -44h17q65 0 95 -10q48 -15 54 -62z" />
    <glyph glyph-name="Icircumflex" unicode="&#xce;" horiz-adv-x="594" 
d="M618 764q1 -11 -2 -23t-9 -17q-13 -16 -59 -19q-99 -7 -174 -14q-104 -300 -133 -560q6 1 97 25q58 16 95 16q22 0 22 -17t-23 -43.5t-41 -36.5q-67 -35 -193 -57q-110 -21 -193 -21q-79 0 -79 43q0 11 4 23q13 51 78 51q10 0 28.5 -1.5t25.5 -1.5q38 0 67 3
q36 183 130 548q-119 -47 -135 -47q-31 0 -31 48q0 75 58 105q20 9 41 18q-2 12 26 36q108 97 155 165q23 33 44 33q9 0 21 -7t13 -18q17 -27 79 -142l12 -21q70 -13 76 -68zM459 836q-23 53 -57 95q-28 -31 -107 -115q80 19 164 20z" />
    <glyph glyph-name="Idieresis" unicode="&#xcf;" horiz-adv-x="594" 
d="M597 990q-3 -11 -25 -56t-29 -55q-15 -20 -47 -20q-36 0 -29 24q17 65 34 102q9 22 58 22q43 0 38 -17zM342 997q-3 -12 -25 -56.5t-29 -54.5q-15 -20 -47 -20q-36 0 -29 24q17 65 33 102q10 22 59 22q43 0 38 -17zM619 764q1 -11 -2 -23t-9 -17q-14 -16 -59 -19
q-99 -7 -174 -14q-104 -300 -133 -560q6 1 97 25q58 16 95 16q22 0 22 -17t-23 -43.5t-41 -36.5q-68 -35 -193 -57q-110 -21 -193 -21q-79 0 -79 43q0 11 4 23q13 51 78 51q10 0 28.5 -1.5t25.5 -1.5q38 0 67 3q36 183 130 548q-119 -47 -135 -47q-31 0 -31 48q0 75 58 105
q139 68 318 68q65 0 95 -10q49 -15 54 -62z" />
    <glyph glyph-name="Ntilde" unicode="&#xd1;" horiz-adv-x="795" 
d="M675 841q-7 -26 -44.5 -48.5t-65.5 -22.5q-24 0 -66 22t-62 22q-18 0 -47.5 -22t-35.5 -22q-10 0 -11 21q-1 17 3 29q6 24 34 43.5t54 19.5q23 0 66 -22t70 -22q21 0 49 19q23 17 45 34q10 0 13 -21q2 -17 -2 -30zM824 745q-92 -201 -153 -433q-24 -86 -35 -146
q-2 -26 -12 -78q-17 -63 -101 -63q-28 0 -28 15q0 2 1 6l-301 488q-30 -93 -52 -177q-41 -151 -54 -251q-1 -25 -9 -77q-7 -22 -39 -38q-28 -13 -53 -13q-29 0 -31 22q-2 12 65 296q63 263 78 314q22 86 35 105q28 45 99 45q26 0 34 -13l289 -489q9 32 81 259q26 87 87 262
q24 58 98 58q27 0 27 -23q0 -12 -26 -69z" />
    <glyph glyph-name="Ograve" unicode="&#xd2;" horiz-adv-x="965" 
d="M914 456q-51 -189 -238 -329q-183 -136 -374 -136q-138 0 -222.5 79t-84.5 206q0 50 15 104q41 153 177 279q131 120 293 165q-35 25 -98 80q-11 12 -11 28q0 12 7 28q10 22 31 40q24 21 43 18q12 -2 85 -76q68 -66 95 -98q133 -3 214.5 -82t81.5 -203q0 -50 -14 -103z
M758 411q13 45 13 90q0 103 -61 170q-63 71 -169 71q-127 0 -243 -103q-111 -99 -146 -228q-11 -45 -11 -89q0 -103 60 -170q64 -70 169 -70q127 0 243 103q111 97 145 226z" />
    <glyph glyph-name="Oacute" unicode="&#xd3;" horiz-adv-x="965" 
d="M912 456q-51 -189 -237 -329q-184 -136 -374 -136q-138 0 -222.5 79t-84.5 206q0 50 14 104q41 150 174 274q127 119 286 167q6 13 24 28q29 21 144 96q123 79 136 81q22 4 33.5 -15.5t9.5 -40.5q-3 -35 -34 -57q-41 -27 -123 -70q121 -12 195 -89.5t74 -194.5
q0 -50 -15 -103zM757 411q13 45 13 90q0 103 -61 170q-63 71 -169 71q-127 0 -243 -103q-111 -99 -146 -228q-11 -45 -11 -89q0 -103 59 -170q64 -70 170 -70q127 0 242 103q112 97 146 226z" />
    <glyph glyph-name="Ocircumflex" unicode="&#xd4;" horiz-adv-x="965" 
d="M914 456q-51 -189 -237 -329q-184 -136 -375 -136q-137 0 -221.5 79t-84.5 206q0 50 14 104q34 126 135 236q96 105 225 166q0 12 26 34q108 97 155 165q22 33 44 33q9 0 21 -7t13 -18q17 -27 79 -142q2 -4 8 -14q98 -25 155.5 -98.5t57.5 -175.5q0 -50 -15 -103z
M630 844q-22 45 -49 82q-31 -33 -95 -100q73 19 135 19zM759 411q12 45 12 90q0 103 -60 170q-64 71 -169 71q-127 0 -243 -103q-112 -99 -146 -228q-11 -45 -11 -89q0 -103 59 -170q64 -70 170 -70q126 0 242 103q112 97 146 226z" />
    <glyph glyph-name="Otilde" unicode="&#xd5;" horiz-adv-x="965" 
d="M923 456q-51 -189 -238 -329q-183 -136 -374 -136q-138 0 -222.5 79t-84.5 206q0 50 15 104q48 183 227 320q173 135 360 144q-56 29 -74 29t-47.5 -22.5t-35.5 -22.5q-11 0 -12 22q0 16 3 29q6 23 35 42.5t53 19.5t67.5 -22t70.5 -22q20 0 48 20q22 17 45 33
q11 0 12 -20q2 -18 0 -31q-10 -35 -70 -61q108 -20 172 -95t64 -184q0 -50 -14 -103zM768 411q11 45 11 90q0 103 -59 170q-64 71 -170 71q-126 0 -243 -103q-111 -99 -145 -228q-13 -45 -13 -89q0 -103 61 -170q63 -70 170 -70q126 0 242 103q110 97 146 226z" />
    <glyph glyph-name="Odieresis" unicode="&#xd6;" horiz-adv-x="965" 
d="M823 994q-3 -11 -25 -55.5t-28 -55.5q-15 -20 -47 -20q-36 0 -30 25q18 65 35 101q8 22 57 22q43 0 38 -17zM568 1001q-3 -11 -25 -56t-28 -55q-15 -20 -47 -20q-36 0 -30 25q18 65 35 101q8 22 57 22q43 0 38 -17zM914 456q-51 -189 -238 -329q-183 -136 -374 -136
q-138 0 -222.5 79t-84.5 206q0 50 15 104q51 189 237 328q183 137 373 137q138 0 223 -79.5t85 -206.5q0 -50 -14 -103zM758 411q13 45 13 90q0 103 -61 170q-63 71 -169 71q-127 0 -243 -103q-111 -99 -146 -228q-11 -45 -11 -89q0 -103 60 -170q64 -70 169 -70
q127 0 243 103q111 97 145 226z" />
    <glyph glyph-name="Ugrave" unicode="&#xd9;" horiz-adv-x="757" 
d="M576 749q-9 -20 -25 -33q-20 -17 -37 -13q-16 3 -35 23q-23 20 -83 63q-54 40 -80 66q-11 13 -11 29q0 12 7 28q10 23 31 40q24 22 43 18q12 -3 93 -82q75 -76 91 -97t6 -42zM766 776q-17 -44 -49 -132q-92 -253 -123 -469q-3 -34 -16 -102q-6 -23 -38 -39
q-27 -13 -53 -13q-29 0 -32 21q-1 7 28 128q-94 -47 -243 -95q-163 -53 -235 -53q-41 0 -41 31q0 12 7 35q11 38 11 39l3 12q38 174 122 523q20 75 39 101q30 41 96 41q33 0 33 -20q0 -12 -16 -54l-24 -56q-44 -116 -100 -329q-34 -125 -34 -162q0 -18 19 -18q45 0 192 54
q118 43 200 80q49 222 88 367q17 68 37 95q31 44 92 44q44 0 37 -29z" />
    <glyph glyph-name="Uacute" unicode="&#xda;" horiz-adv-x="757" 
d="M703 916q-3 -35 -35 -57q-39 -26 -115 -66q-83 -44 -115 -63.5t-49 -22.5q-19 -4 -29 11t-9 34q2 21 29 42.5t143 97.5q123 79 136 81q22 4 33.5 -16t10.5 -41zM766 776q-17 -44 -50 -132q-92 -253 -122 -469q-3 -34 -16 -102q-6 -23 -38 -39q-28 -13 -53 -13
q-29 0 -33 21q-1 7 28 128q-93 -47 -242 -95q-163 -53 -236 -53q-40 0 -40 31q0 12 7 35q11 38 11 39l3 12q37 174 121 523q21 75 40 101q30 41 96 41q33 0 33 -20q0 -12 -17 -54q-11 -28 -23 -56q-44 -116 -101 -329q-33 -125 -33 -162q0 -18 19 -18q44 0 192 54
q118 43 200 80q48 222 87 367q18 68 38 95q31 44 91 44q44 0 38 -29z" />
    <glyph glyph-name="Ucircumflex" unicode="&#xdb;" horiz-adv-x="757" 
d="M654 820q-3 -10 -17.5 -25t-28.5 -15t-24 28q-28 82 -75 143q-13 -14 -131 -139q-28 -29 -47 -29q-11 0 -21 8q-14 10 -10 22q2 10 24 30q109 96 155 164q23 33 44 33q9 0 21.5 -7.5t13.5 -16.5q16 -29 78 -143q21 -40 18 -53zM757 776q-17 -44 -50 -132
q-92 -253 -122 -469q-4 -34 -16 -102q-7 -23 -36.5 -37.5t-53.5 -14.5q-31 0 -34 21q-1 7 29 128q-94 -47 -243 -95q-164 -53 -236 -53q-40 0 -40 31q0 12 7 35q12 38 12 39l3 12q37 174 121 523q20 75 39 101q30 41 96 41q34 0 34 -20q0 -12 -18 -54q-12 -28 -22 -56
q-44 -116 -102 -329q-33 -125 -33 -162q0 -18 19 -18q44 0 192 54q118 43 200 80q48 222 87 367q18 68 38 95q30 44 91 44q45 0 38 -29z" />
    <glyph glyph-name="Udieresis" unicode="&#xdc;" horiz-adv-x="757" 
d="M700 931q-3 -11 -25 -56t-29 -56q-14 -19 -47 -19q-36 0 -30 24q18 66 35 102q8 21 57 21q43 0 39 -16zM474 937q-3 -10 -24.5 -55t-29.5 -56q-14 -19 -47 -19q-35 0 -29 24q17 65 34 102q9 21 58 21q43 0 38 -17zM768 776q-17 -44 -49 -132q-92 -253 -123 -469
q-3 -34 -15 -102q-7 -23 -39 -39q-27 -13 -53 -13q-29 0 -32 21q-1 7 28 128q-94 -47 -242 -95q-164 -53 -236 -53q-40 0 -40 31q0 12 7 35q10 38 11 39l3 12q37 174 121 523q21 75 38 101q32 41 98 41q33 0 33 -20q0 -12 -17 -54l-24 -56q-44 -116 -100 -329
q-33 -125 -33 -162q0 -18 18 -18q45 0 192 54q118 43 200 80q48 222 88 367q18 68 37 95q31 44 91 44q45 0 38 -29z" />
    <glyph glyph-name="Yacute" unicode="&#xdd;" horiz-adv-x="716" 
d="M668 920q-3 -35 -35 -57q-39 -26 -115 -66q-83 -44 -115 -63.5t-49 -22.5q-19 -4 -29.5 11t-9.5 34q2 21 29.5 42.5t143.5 97.5q122 79 136 81q22 3 33.5 -16.5t10.5 -40.5zM807 771q-4 -13 -64 -72l-76 -74q-255 -256 -428 -488q-29 -42 -58 -85q-40 -49 -82 -49
q-19 0 -36 11q-19 12 -19 29q0 4 1.5 9t216.5 266l-87 177q-24 46 -47 92q-27 54 -41 95q-10 25 -4 47q6 20 33 51t46 31q10 0 18 -15q3 -5 25 -70q55 -160 136 -314q31 37 235 275q31 39 100 112q29 28 64 28q24 0 46 -13t22 -34q0 -5 -1 -9z" />
    <glyph glyph-name="agrave" unicode="&#xe0;" 
d="M655 97q-7 -25 -38.5 -47t-56.5 -22q-27 0 -39 53l-10 76q-193 -44 -478 -94q-54 -80 -81 -80q-23 0 -38.5 23.5t-15.5 52.5q0 9 2 17q5 16 41 56q26 28 51 55q100 118 213 291q97 149 192 299q8 13 17 23q-36 25 -102 83q-11 12 -11 27q0 13 7 28q10 23 31 41
q23 21 43 17q13 -3 93 -82q75 -74 91 -96t6 -43q-14 -33 -43 -44q13 -268 96 -523l20 -56q14 -43 10 -55zM490 280q-17 125 -58 374q-67 -93 -307 -461q195 31 365 87z" />
    <glyph glyph-name="aacute" unicode="&#xe1;" 
d="M735 918q-3 -35 -34 -57q-26 -17 -172 -95q2 -32 6 -92q29 -271 92 -466q11 -28 20 -56q14 -43 11 -55q-7 -25 -39 -47t-57 -22q-26 0 -39 53q-4 38 -9 76q-193 -44 -478 -94q-56 -80 -81 -80q-23 0 -38.5 23.5t-15.5 52.5q0 9 2 17q5 16 41 56q26 28 51 55
q97 114 204 277q92 143 184 287v4q1 20 29 42l12 9t18 12q222 152 249 158q23 3 34.5 -17t9.5 -41zM493 280q-17 125 -58 374q-67 -93 -308 -461q196 31 366 87z" />
    <glyph glyph-name="acircumflex" unicode="&#xe2;" 
d="M640 807q-3 -12 -17 -25q-16 -15 -30 -15t-24 26q-28 82 -75 144q-13 -13 -132 -139q-27 -28 -46 -28q-10 0 -21 7q-14 10 -10 22q2 10 25 29q108 97 155 165q22 32 43 32q10 0 21.5 -6.5t13.5 -17.5q17 -27 78 -143q22 -39 19 -51zM651 97q-6 -25 -38 -47t-57 -22
q-27 0 -38 53q-6 38 -11 76q-193 -44 -478 -94q-54 -80 -81 -80q-23 0 -38 23.5t-15 52.5q0 9 1 17q5 16 41 56q26 28 51 55q100 118 213 291q97 149 193 299q33 51 88 51q27 0 35 -26q5 -23 8 -63q3 -61 3 -65q30 -271 93 -466l20 -56q14 -43 10 -55zM486 280
q-17 125 -58 374q-67 -93 -307 -461q195 31 365 87z" />
    <glyph glyph-name="atilde" unicode="&#xe3;" 
d="M664 97q-7 -25 -39 -47t-57 -22q-26 0 -39 53q-5 38 -9 76q-193 -44 -478 -94q-56 -80 -81 -80q-24 0 -39 23.5t-15 52.5q0 9 2 17q5 16 41 56q26 28 51 55q100 118 213 291q96 149 192 299q32 50 86 51q-50 26 -69 26q-18 0 -47 -22t-36 -22q-11 0 -12 21q0 17 3 29
q7 24 35.5 43.5t53.5 19.5q23 0 66 -22t71 -22q20 0 48 19q23 17 45 34q10 0 13 -21q2 -17 -2 -30q-7 -26 -45 -48.5t-64 -22.5q-14 0 -29 4q11 -17 14 -68l4 -72q29 -271 92 -466q11 -28 20 -56q14 -43 11 -55zM499 280q-18 125 -59 374q-66 -93 -307 -461q196 31 366 87z
" />
    <glyph glyph-name="adieresis" unicode="&#xe4;" 
d="M705 931q-3 -11 -25 -56t-30 -56q-13 -19 -46 -19q-36 0 -29 24q17 66 33 102q10 21 58 21q43 0 39 -16zM450 937q-3 -10 -25 -55t-29 -56q-14 -19 -47 -19q-36 0 -30 24q18 65 35 102q8 21 57 21q43 0 39 -17zM661 97q-7 -25 -39 -47t-57 -22q-26 0 -39 53q-5 38 -9 76
q-193 -44 -478 -94q-56 -80 -81 -80q-23 0 -38.5 23.5t-15.5 52.5q0 9 2 17q5 16 41 56q26 28 51 55q100 118 213 291q96 149 192 299q33 51 89 51q27 0 33 -26q7 -23 9 -63q4 -61 4 -65q29 -271 92 -466q11 -28 20 -56q14 -43 11 -55zM496 280q-17 125 -59 374
q-66 -93 -307 -461q196 31 366 87z" />
    <glyph glyph-name="aring" unicode="&#xe5;" 
d="M660 97q-7 -25 -39 -47t-58 -22t-38 53q-4 38 -10 76q-192 -44 -477 -94q-56 -80 -81 -80q-23 0 -38.5 23.5t-15.5 52.5q0 9 2 17q4 16 40 56q26 28 52 55q100 118 213 291q96 149 191 299q13 20 27 31q-25 15 -25 46q0 42 38.5 75.5t80.5 33.5q28 0 44.5 -15t16.5 -41
q0 -56 -64 -93q10 -16 14 -67q2 -37 4 -73q28 -271 92 -466l20 -56q14 -43 11 -55zM540 894q0 37 -35 37q-23 0 -42 -21t-19 -44q0 -37 35 -37q23 0 42 21t19 44zM495 280q-18 125 -58 374q-67 -93 -308 -461q196 31 366 87z" />
    <glyph glyph-name="egrave" unicode="&#xe8;" horiz-adv-x="734" 
d="M710 482q-7 -25 -73 -33q-326 -36 -507 -92q-29 -121 -42 -234q90 0 213 23q107 22 216 44q18 4 30 4q32 0 32 -22q0 -24 -26 -53q-23 -25 -46 -37q-92 -46 -238 -71q-123 -21 -238 -21q-57 0 -68 31q-7 21 63 314q-25 10 -25 42q0 24 15 45.5t39 30.5h1q20 97 49 205
q4 22 18 60q11 20 30 32q13 8 55 20q36 10 109 32q-35 24 -97 80q-12 12 -12 27q0 13 7 28q11 23 31 41q24 21 43 17q11 -2 79 -69q62 -60 96 -98h11h40q51 1 71 -4q33 -8 50.5 -36.5t10.5 -52.5q-7 -32 -68 -37q-146 -12 -186 -19q-81 -14 -191 -56q-22 -66 -42 -140
q244 67 428 67q34 0 56 -3t44 -22q28 -21 22 -43z" />
    <glyph glyph-name="eacute" unicode="&#xe9;" horiz-adv-x="734" 
d="M713 482q-7 -25 -73 -33q-327 -36 -507 -92q-29 -121 -42 -234q91 0 213 23l216 44q18 4 30 4q32 0 32 -22q0 -24 -26 -53q-23 -25 -46 -37q-92 -46 -238 -71q-123 -21 -238 -21q-57 0 -68 31q-7 21 64 314q-26 10 -26 42q0 24 15.5 45.5t38.5 30.5h1q20 97 49 205
q5 22 19 60q10 20 29 32q13 8 55 20q24 6 73 21l3 3q26 21 144 97q122 79 135 81q22 4 33.5 -15.5t10.5 -41.5q-3 -35 -35 -57q-21 -14 -48 -30q45 1 66 -5q30 -9 47 -35q17 -29 10 -53q-7 -32 -68 -37q-146 -12 -186 -19q-81 -14 -190 -56q-23 -66 -43 -140q244 67 428 67
q34 0 56 -3t45 -22q27 -21 21 -43z" />
    <glyph glyph-name="ecircumflex" unicode="&#xea;" horiz-adv-x="734" 
d="M707 482q-7 -25 -73 -33q-326 -36 -508 -92q-28 -121 -41 -234q90 0 213 23q107 22 216 44q18 4 30 4q32 0 32 -22q0 -24 -26 -53q-23 -25 -46 -37q-92 -46 -238 -71q-123 -21 -238 -21q-58 0 -68 31q-7 21 63 314q-25 10 -25 42q0 24 15 45.5t39 30.5h1q20 97 50 205
q3 22 17 60q11 20 30 32q13 8 55 20q11 2 24 6q-4 8 -2 16q2 10 24 29q108 97 155 164q23 34 44 34q9 0 21 -7.5t13 -17.5q18 -28 79 -142l15 -27q36 -7 54.5 -36.5t12.5 -53.5q-9 -32 -69 -37q-146 -12 -186 -19q-80 -14 -191 -56q-22 -66 -42 -140q244 67 427 67
q35 0 55 -3q23 -3 47 -22q27 -21 21 -43zM495 828q-24 57 -58 102q-24 -25 -122 -128q92 26 157 26h23z" />
    <glyph glyph-name="edieresis" unicode="&#xeb;" horiz-adv-x="734" 
d="M656 979q-3 -11 -25 -56t-28 -56q-14 -19 -47 -19q-35 0 -30 24q18 65 35 102q8 21 57 21q43 0 38 -16zM401 985q-3 -10 -25 -55t-28 -56q-15 -20 -47 -20q-36 0 -30 25q18 65 35 101q8 22 57 22q43 0 38 -17zM709 482q-7 -25 -73 -33q-326 -36 -507 -92
q-29 -121 -42 -234q91 0 213 23l216 44q18 4 30 4q32 0 32 -22q0 -24 -26 -53q-23 -25 -46 -37q-92 -46 -237 -71q-123 -21 -239 -21q-57 0 -68 31q-7 21 64 314q-26 10 -26 42q0 24 15 45.5t39 30.5h1q20 97 49 205q5 22 19 60q10 20 29 32q13 8 55 20q66 19 134 39
q76 19 133 19h40q51 1 71 -4q33 -8 50.5 -36.5t10.5 -52.5q-7 -32 -68 -37q-146 -12 -185 -19q-81 -14 -191 -56q-23 -66 -43 -140q244 67 428 67q34 0 56 -3t45 -22q27 -21 21 -43z" />
    <glyph glyph-name="igrave" unicode="&#xec;" horiz-adv-x="283" 
d="M295 778q-7 -14 -20 -27q-14 -36 -42 -107q-41 -114 -72 -229q-39 -147 -55 -252q-2 -31 -12 -96q-6 -20 -39 -35q-29 -11 -52 -11q-31 0 -31 30q0 4 18 78l4 17q44 191 139 573q11 37 36 58q-48 34 -135 109q-12 11 -12 27q0 13 8 28q10 23 31 40q24 22 43 18
q12 -3 92 -82q75 -74 92 -96t7 -43z" />
    <glyph glyph-name="iacute" unicode="&#xed;" horiz-adv-x="283" 
d="M505 925q-3 -35 -35 -57q-36 -24 -93 -55l-96 -50q-15 -40 -46 -119q-41 -114 -71 -229q-40 -147 -55 -252q-3 -31 -13 -96q-5 -20 -39 -35q-29 -11 -52 -11q-30 0 -30 30q0 4 18 78l4 17q44 191 139 573q5 21 16 37q-1 24 30 48q27 21 143 96q122 79 136 81
q21 4 33 -15.5t11 -40.5z" />
    <glyph glyph-name="icircumflex" unicode="&#xee;" horiz-adv-x="283" 
d="M391 775q-3 -10 -18 -25t-29 -15t-24 28q-28 82 -75 143q-13 -13 -132 -138q-27 -30 -46 -30q-10 0 -21 8q-14 10 -10 23q2 9 25 29q108 97 155 164q22 33 43 33q10 0 21.5 -7.5t13.5 -16.5q17 -29 78 -143q22 -40 19 -53zM234 644q-41 -114 -72 -229q-39 -147 -55 -252
q-2 -31 -12 -96q-6 -20 -40 -35q-29 -11 -51 -11q-31 0 -31 30q0 4 18 78l4 17q44 191 139 573q22 84 118 84q32 0 32 -20q0 -12 -21 -67q-15 -36 -29 -72z" />
    <glyph glyph-name="idieresis" unicode="&#xef;" horiz-adv-x="283" 
d="M407 963q-3 -11 -25 -56t-28 -55q-15 -20 -48 -20q-35 0 -29 24q18 66 34 102q9 21 58 21q43 0 38 -16zM270 970q-3 -11 -25 -56t-30 -56q-14 -19 -47 -19q-35 0 -28 24q17 66 33 102q10 21 58 21q42 0 39 -16zM235 644q-41 -114 -72 -229q-39 -147 -55 -252
q-2 -31 -12 -96q-6 -20 -40 -35q-28 -11 -51 -11q-31 0 -31 30q0 4 18 78l4 17q44 191 139 573q22 84 118 84q32 0 32 -20q0 -12 -21 -67q-14 -36 -29 -72z" />
    <glyph glyph-name="ntilde" unicode="&#xf1;" horiz-adv-x="795" 
d="M675 841q-7 -26 -44.5 -48.5t-65.5 -22.5q-24 0 -66 22t-62 22q-18 0 -47.5 -22t-35.5 -22q-10 0 -11 21q-1 17 3 29q6 24 34 43.5t54 19.5q23 0 66 -22t70 -22q21 0 49 19q23 17 45 34q10 0 13 -21q2 -17 -2 -30zM824 745q-92 -201 -153 -433q-24 -86 -35 -146
q-2 -26 -12 -78q-17 -63 -101 -63q-28 0 -28 15q0 2 1 6l-301 488q-30 -93 -52 -177q-41 -151 -54 -251q-1 -25 -9 -77q-7 -22 -39 -38q-28 -13 -53 -13q-29 0 -31 22q-2 12 65 296q63 263 78 314q22 86 35 105q28 45 99 45q26 0 34 -13l289 -489q9 32 81 259q26 87 87 262
q24 58 98 58q27 0 27 -23q0 -12 -26 -69z" />
    <glyph glyph-name="ograve" unicode="&#xf2;" horiz-adv-x="965" 
d="M914 456q-51 -189 -238 -329q-183 -136 -374 -136q-138 0 -222.5 79t-84.5 206q0 50 15 104q41 153 177 279q131 120 293 165q-35 25 -98 80q-11 12 -11 28q0 12 7 28q10 22 31 40q24 21 43 18q12 -2 85 -76q68 -66 95 -98q133 -3 214.5 -82t81.5 -203q0 -50 -14 -103z
M758 411q13 45 13 90q0 103 -61 170q-63 71 -169 71q-127 0 -243 -103q-111 -99 -146 -228q-11 -45 -11 -89q0 -103 60 -170q64 -70 169 -70q127 0 243 103q111 97 145 226z" />
    <glyph glyph-name="oacute" unicode="&#xf3;" horiz-adv-x="965" 
d="M912 456q-51 -189 -237 -329q-184 -136 -374 -136q-138 0 -222.5 79t-84.5 206q0 50 14 104q41 150 174 274q127 119 286 167q6 13 24 28q29 21 144 96q123 79 136 81q22 4 33.5 -15.5t9.5 -40.5q-3 -35 -34 -57q-41 -27 -123 -70q121 -12 195 -89.5t74 -194.5
q0 -50 -15 -103zM757 411q13 45 13 90q0 103 -61 170q-63 71 -169 71q-127 0 -243 -103q-111 -99 -146 -228q-11 -45 -11 -89q0 -103 59 -170q64 -70 170 -70q127 0 242 103q112 97 146 226z" />
    <glyph glyph-name="ocircumflex" unicode="&#xf4;" horiz-adv-x="965" 
d="M914 456q-51 -189 -237 -329q-184 -136 -375 -136q-137 0 -221.5 79t-84.5 206q0 50 14 104q34 126 135 236q96 105 225 166q0 12 26 34q108 97 155 165q22 33 44 33q9 0 21 -7t13 -18q17 -27 79 -142q2 -4 8 -14q98 -25 155.5 -98.5t57.5 -175.5q0 -50 -15 -103z
M630 844q-22 45 -49 82q-31 -33 -95 -100q73 19 135 19zM759 411q12 45 12 90q0 103 -60 170q-64 71 -169 71q-127 0 -243 -103q-112 -99 -146 -228q-11 -45 -11 -89q0 -103 59 -170q64 -70 170 -70q126 0 242 103q112 97 146 226z" />
    <glyph glyph-name="otilde" unicode="&#xf5;" horiz-adv-x="965" 
d="M923 456q-51 -189 -238 -329q-183 -136 -374 -136q-138 0 -222.5 79t-84.5 206q0 50 15 104q48 183 227 320q173 135 360 144q-56 29 -74 29t-47.5 -22.5t-35.5 -22.5q-11 0 -12 22q0 16 3 29q6 23 35 42.5t53 19.5t67.5 -22t70.5 -22q20 0 48 20q22 17 45 33
q11 0 12 -20q2 -18 0 -31q-10 -35 -70 -61q108 -20 172 -95t64 -184q0 -50 -14 -103zM768 411q11 45 11 90q0 103 -59 170q-64 71 -170 71q-126 0 -243 -103q-111 -99 -145 -228q-13 -45 -13 -89q0 -103 61 -170q63 -70 170 -70q126 0 242 103q110 97 146 226z" />
    <glyph glyph-name="odieresis" unicode="&#xf6;" horiz-adv-x="965" 
d="M823 994q-3 -11 -25 -55.5t-28 -55.5q-15 -20 -47 -20q-36 0 -30 25q18 65 35 101q8 22 57 22q43 0 38 -17zM568 1001q-3 -11 -25 -56t-28 -55q-15 -20 -47 -20q-36 0 -30 25q18 65 35 101q8 22 57 22q43 0 38 -17zM914 456q-51 -189 -238 -329q-183 -136 -374 -136
q-138 0 -222.5 79t-84.5 206q0 50 15 104q51 189 237 328q183 137 373 137q138 0 223 -79.5t85 -206.5q0 -50 -14 -103zM758 411q13 45 13 90q0 103 -61 170q-63 71 -169 71q-127 0 -243 -103q-111 -99 -146 -228q-11 -45 -11 -89q0 -103 60 -170q64 -70 169 -70
q127 0 243 103q111 97 145 226z" />
    <glyph glyph-name="ugrave" unicode="&#xf9;" horiz-adv-x="757" 
d="M576 749q-9 -20 -25 -33q-20 -17 -37 -13q-16 3 -35 23q-23 20 -83 63q-54 40 -80 66q-11 13 -11 29q0 12 7 28q10 23 31 40q24 22 43 18q12 -3 93 -82q75 -76 91 -97t6 -42zM766 776q-17 -44 -49 -132q-92 -253 -123 -469q-3 -34 -16 -102q-6 -23 -38 -39
q-27 -13 -53 -13q-29 0 -32 21q-1 7 28 128q-94 -47 -243 -95q-163 -53 -235 -53q-41 0 -41 31q0 12 7 35q11 38 11 39l3 12q38 174 122 523q20 75 39 101q30 41 96 41q33 0 33 -20q0 -12 -16 -54l-24 -56q-44 -116 -100 -329q-34 -125 -34 -162q0 -18 19 -18q45 0 192 54
q118 43 200 80q49 222 88 367q17 68 37 95q31 44 92 44q44 0 37 -29z" />
    <glyph glyph-name="uacute" unicode="&#xfa;" horiz-adv-x="757" 
d="M703 916q-3 -35 -35 -57q-39 -26 -115 -66q-83 -44 -115 -63.5t-49 -22.5q-19 -4 -29 11t-9 34q2 21 29 42.5t143 97.5q123 79 136 81q22 4 33.5 -16t10.5 -41zM766 776q-17 -44 -50 -132q-92 -253 -122 -469q-3 -34 -16 -102q-6 -23 -38 -39q-28 -13 -53 -13
q-29 0 -33 21q-1 7 28 128q-93 -47 -242 -95q-163 -53 -236 -53q-40 0 -40 31q0 12 7 35q11 38 11 39l3 12q37 174 121 523q21 75 40 101q30 41 96 41q33 0 33 -20q0 -12 -17 -54q-11 -28 -23 -56q-44 -116 -101 -329q-33 -125 -33 -162q0 -18 19 -18q44 0 192 54
q118 43 200 80q48 222 87 367q18 68 38 95q31 44 91 44q44 0 38 -29z" />
    <glyph glyph-name="ucircumflex" unicode="&#xfb;" horiz-adv-x="757" 
d="M654 820q-3 -10 -17.5 -25t-28.5 -15t-24 28q-28 82 -75 143q-13 -14 -131 -139q-28 -29 -47 -29q-11 0 -21 8q-14 10 -10 22q2 10 24 30q109 96 155 164q23 33 44 33q9 0 21.5 -7.5t13.5 -16.5q16 -29 78 -143q21 -40 18 -53zM757 776q-17 -44 -50 -132
q-92 -253 -122 -469q-4 -34 -16 -102q-7 -23 -36.5 -37.5t-53.5 -14.5q-31 0 -34 21q-1 7 29 128q-94 -47 -243 -95q-164 -53 -236 -53q-40 0 -40 31q0 12 7 35q12 38 12 39l3 12q37 174 121 523q20 75 39 101q30 41 96 41q34 0 34 -20q0 -12 -18 -54q-12 -28 -22 -56
q-44 -116 -102 -329q-33 -125 -33 -162q0 -18 19 -18q44 0 192 54q118 43 200 80q48 222 87 367q18 68 38 95q30 44 91 44q45 0 38 -29z" />
    <glyph glyph-name="udieresis" unicode="&#xfc;" horiz-adv-x="757" 
d="M700 931q-3 -11 -25 -56t-29 -56q-14 -19 -47 -19q-36 0 -30 24q18 66 35 102q8 21 57 21q43 0 39 -16zM474 937q-3 -10 -24.5 -55t-29.5 -56q-14 -19 -47 -19q-35 0 -29 24q17 65 34 102q9 21 58 21q43 0 38 -17zM768 776q-17 -44 -49 -132q-92 -253 -123 -469
q-3 -34 -15 -102q-7 -23 -39 -39q-27 -13 -53 -13q-29 0 -32 21q-1 7 28 128q-94 -47 -242 -95q-164 -53 -236 -53q-40 0 -40 31q0 12 7 35q10 38 11 39l3 12q37 174 121 523q21 75 38 101q32 41 98 41q33 0 33 -20q0 -12 -17 -54l-24 -56q-44 -116 -100 -329
q-33 -125 -33 -162q0 -18 18 -18q45 0 192 54q118 43 200 80q48 222 88 367q18 68 37 95q31 44 91 44q45 0 38 -29z" />
    <glyph glyph-name="yacute" unicode="&#xfd;" horiz-adv-x="716" 
d="M670 928q-3 -35 -35 -57q-39 -26 -115 -66q-83 -44 -115 -63.5t-50 -22.5q-18 -4 -28.5 11t-9.5 34q2 21 29.5 42.5t143.5 96.5q122 79 136 81q21 4 33 -15.5t11 -40.5zM806 771q-4 -13 -64 -72l-76 -74q-255 -256 -428 -488q-29 -42 -58 -85q-40 -49 -82 -49
q-19 0 -36 11q-19 12 -19 29q0 4 1.5 9t216.5 266l-87 177q-24 46 -47 92q-27 54 -42 95q-9 25 -3 47q6 20 33 51t46 31q10 0 18 -15q3 -5 25 -70q54 -160 135 -314q32 37 236 275q31 39 100 112q29 28 64 28q24 0 46 -13t22 -34q0 -5 -1 -9z" />
    <glyph glyph-name="ydieresis" unicode="&#xff;" horiz-adv-x="716" 
d="M673 931q-3 -11 -25 -56t-29 -56q-15 -19 -48 -19q-35 0 -28 24q18 66 33 102q10 21 59 21q43 0 38 -16zM418 937q-3 -10 -25 -55t-30 -56q-13 -19 -47 -19q-35 0 -28 24q18 65 33 102q10 21 59 21q42 0 38 -17zM810 771q-3 -13 -63 -72q-39 -37 -77 -74
q-255 -256 -428 -488q-29 -42 -58 -85q-40 -49 -82 -49q-19 0 -36.5 11.5t-17.5 28.5q0 4 1 9t216 266l-86 177q-25 46 -48 92q-27 54 -41 95q-9 25 -3 47q5 20 32 51t46 31q10 0 18 -15q3 -5 25 -70q55 -160 136 -314q31 37 235 275q32 39 100 112q29 28 65 28q23 0 45 -13
t22 -34q0 -5 -1 -9z" />
    <glyph glyph-name="Ydieresis" unicode="&#x178;" horiz-adv-x="716" 
d="M673 931q-3 -11 -25 -56t-29 -56q-15 -19 -48 -19q-35 0 -28 24q18 66 33 102q10 21 59 21q43 0 38 -16zM418 937q-3 -10 -25 -55t-30 -56q-13 -19 -47 -19q-35 0 -28 24q18 65 33 102q10 21 59 21q42 0 38 -17zM810 771q-3 -13 -63 -72q-39 -37 -77 -74
q-255 -256 -428 -488q-29 -42 -58 -85q-40 -49 -82 -49q-19 0 -36.5 11.5t-17.5 28.5q0 4 1 9t216 266l-86 177q-25 46 -48 92q-27 54 -41 95q-9 25 -3 47q5 20 32 51t46 31q10 0 18 -15q3 -5 25 -70q55 -160 136 -314q31 37 235 275q32 39 100 112q29 28 65 28q23 0 45 -13
t22 -34q0 -5 -1 -9z" />
    <glyph glyph-name="quoteleft" unicode="&#x2018;" horiz-adv-x="392" 
d="M336 624q-5 -19 -24.5 -30.5t-38.5 -11.5q-25 0 -35 24.5t-36 135.5q-26 115 -23 129q6 21 34 34q23 12 46 12q36 0 42 -27.5t20 -138.5q17 -118 15 -127z" />
    <glyph glyph-name="quoteright" unicode="&#x2019;" horiz-adv-x="388" 
d="M439 870q-3 -14 -91 -129q-85 -110 -108.5 -134.5t-45.5 -24.5q-45 0 -45 32q0 18 29 55q23 32 73 110q46 72 75 109q24 29 60 29q19 0 36.5 -10.5t17.5 -27.5q0 -5 -1 -9z" />
    <glyph glyph-name="quotedblleft" unicode="&#x201c;" horiz-adv-x="540" 
d="M508 628q-5 -18 -24.5 -30t-38.5 -12q-24 0 -36 26q-10 24 -36 134q-26 115 -22 130q4 20 33 34q24 12 47 12q36 0 42 -29q5 -22 20 -138q17 -120 15 -127zM312 568q-4 -19 -24 -30t-41 -11t-31.5 24.5t-35.5 135.5q-27 116 -24 129q6 21 34 35q24 11 46 11q35 0 42 -29
q4 -18 20 -138.5t14 -126.5z" />
    <glyph glyph-name="quotedblright" unicode="&#x201d;" horiz-adv-x="497" 
d="M561 815q-4 -14 -93 -128q-83 -109 -107.5 -134.5t-46.5 -25.5q-44 0 -44 33q0 15 28 53q25 33 73 111q45 72 74 108q25 30 61 30q20 0 38 -10t18 -28q0 -5 -1 -9zM397 875q-3 -14 -91 -129q-85 -110 -108 -134q-25 -26 -51 -26q-15 0 -27.5 9t-12.5 24q0 17 29 54
q23 32 73 110q45 72 75 110q24 29 60 29q19 0 36.5 -10.5t17.5 -27.5q0 -5 -1 -9z" />
    <glyph glyph-name="ellipsis" unicode="&#x2026;" horiz-adv-x="781" 
d="M633 177q-4 -14 -31.5 -70t-36.5 -69q-17 -24 -58 -24q-36 0 -36 23q0 13 17 67q16 45 25 67q11 26 72 26q54 0 48 -20zM395 176q-4 -14 -31.5 -70t-36.5 -69q-17 -24 -58 -24q-38 0 -38 23q0 13 19 67q16 45 24 67q12 26 73 26q52 0 48 -20zM155 175q-3 -14 -30 -70
t-37 -69q-17 -24 -59 -24q-36 0 -36 23q0 13 18 67q15 45 25 67q12 26 72 26q53 0 47 -20z" />
    <glyph glyph-name="trademark" unicode="&#x2122;" horiz-adv-x="968" 
d="M929 475q-3 -13 -24 -29.5t-34 -16.5q-8 0 -11 8q-6 9 -10 131q-2 75 -5 150q-49 -87 -98 -175q-83 -142 -108 -142q-37 0 -52 282q-142 -233 -185 -278q-9 -9 -17 -9q-13 0 -21 16q-8 14 -8 31q0 6 1 11q12 18 39 52q80 106 141 209l51 90q16 29 37 29q12 0 17 -18
q0 -18 1 -53q1 -48 11 -116q9 -55 18 -112q41 64 94 160q88 158 89 161q16 28 39 28q14 0 16 -35l-1 -48q-3 -99 1 -154q1 -5 11 -77q9 -61 9 -84q0 -7 -1 -11zM477 812q-4 -13 -59 -20l-68 -4q-57 -162 -77 -317q-1 -19 -6 -56q-4 -13 -22 -22.5t-32 -9.5q-16 0 -19 12
q-5 22 88 378q-98 -28 -101 -28q-13 0 -17 15q-3 11 1 25q12 43 96 64q58 14 127 14q28 0 53 -9q37 -11 37 -34q0 -4 -1 -8z" />
  </font>
</defs>
</svg>
